<?xml version="1.0" encoding="UTF-8" standalone="no"?>
<!DOCTYPE svg PUBLIC "-//W3C//DTD SVG 1.1//EN"
 "http://www.w3.org/Graphics/SVG/1.1/DTD/svg11.dtd">
<!-- Generated by graphviz version 8.0.1 (0)
 -->
<!-- Pages: 1 -->
<svg width="2944pt" height="239pt"
 viewBox="0.00 0.00 2944.00 239.00" xmlns="http://www.w3.org/2000/svg" xmlns:xlink="http://www.w3.org/1999/xlink">
<g id="graph0" class="graph" transform="scale(1 1) rotate(0) translate(4 235)">
<polygon fill="white" stroke="none" points="-4,4 -4,-235 2940,-235 2940,4 -4,4"/>
<!-- 140324406208528 -->
<g id="node1" class="node">
<title>140324406208528</title>
<polygon fill="none" stroke="black" points="2,-194.5 2,-230.5 198,-230.5 198,-194.5 2,-194.5"/>
<text text-anchor="middle" x="17" y="-208.8" font-family="Times,serif" font-size="14.00">x1</text>
<polyline fill="none" stroke="black" points="32,-194.5 32,-230.5"/>
<text text-anchor="middle" x="72" y="-208.8" font-family="Times,serif" font-size="14.00">data 2.0000</text>
<polyline fill="none" stroke="black" points="112,-194.5 112,-230.5"/>
<text text-anchor="middle" x="155" y="-208.8" font-family="Times,serif" font-size="14.00">grad &#45;1.5000</text>
</g>
<!-- 140324402828688* -->
<g id="node24" class="node">
<title>140324402828688*</title>
<ellipse fill="none" stroke="black" cx="263" cy="-157.5" rx="27" ry="18"/>
<text text-anchor="middle" x="263" y="-153.8" font-family="Times,serif" font-size="14.00">*</text>
</g>
<!-- 140324406208528&#45;&gt;140324402828688* -->
<g id="edge23" class="edge">
<title>140324406208528&#45;&gt;140324402828688*</title>
<path fill="none" stroke="black" d="M172.27,-194.52C181.67,-191.72 191.12,-188.7 200,-185.5 210.31,-181.79 221.29,-177.09 231.1,-172.61"/>
<polygon fill="black" stroke="black" points="232.25,-175.47 239.82,-168.07 229.28,-169.13 232.25,-175.47"/>
</g>
<!-- 140324402926096 -->
<g id="node2" class="node">
<title>140324402926096</title>
<polygon fill="none" stroke="black" points="1690.5,-110.5 1690.5,-146.5 1876.5,-146.5 1876.5,-110.5 1690.5,-110.5"/>
<text text-anchor="middle" x="1700.5" y="-124.8" font-family="Times,serif" font-size="14.00"> </text>
<polyline fill="none" stroke="black" points="1710.5,-110.5 1710.5,-146.5"/>
<text text-anchor="middle" x="1750.5" y="-124.8" font-family="Times,serif" font-size="14.00">data 1.0000</text>
<polyline fill="none" stroke="black" points="1790.5,-110.5 1790.5,-146.5"/>
<text text-anchor="middle" x="1833.5" y="-124.8" font-family="Times,serif" font-size="14.00">grad &#45;0.1036</text>
</g>
<!-- 140324402926352+ -->
<g id="node17" class="node">
<title>140324402926352+</title>
<ellipse fill="none" stroke="black" cx="1940" cy="-100.5" rx="27" ry="18"/>
<text text-anchor="middle" x="1940" y="-96.8" font-family="Times,serif" font-size="14.00">+</text>
</g>
<!-- 140324402926096&#45;&gt;140324402926352+ -->
<g id="edge17" class="edge">
<title>140324402926096&#45;&gt;140324402926352+</title>
<path fill="none" stroke="black" d="M1876.16,-111.89C1885.54,-110.19 1894.63,-108.54 1902.84,-107.05"/>
<polygon fill="black" stroke="black" points="1903.23,-110.36 1912.44,-105.13 1901.98,-103.47 1903.23,-110.36"/>
</g>
<!-- 140324402926672 -->
<g id="node3" class="node">
<title>140324402926672</title>
<polygon fill="none" stroke="black" points="2751,-54.5 2751,-90.5 2936,-90.5 2936,-54.5 2751,-54.5"/>
<text text-anchor="middle" x="2762.5" y="-68.8" font-family="Times,serif" font-size="14.00">o</text>
<polyline fill="none" stroke="black" points="2774,-54.5 2774,-90.5"/>
<text text-anchor="middle" x="2814" y="-68.8" font-family="Times,serif" font-size="14.00">data 0.7071</text>
<polyline fill="none" stroke="black" points="2854,-54.5 2854,-90.5"/>
<text text-anchor="middle" x="2895" y="-68.8" font-family="Times,serif" font-size="14.00">grad 1.0000</text>
</g>
<!-- 140324402926672* -->
<g id="node4" class="node">
<title>140324402926672*</title>
<ellipse fill="none" stroke="black" cx="2688" cy="-72.5" rx="27" ry="18"/>
<text text-anchor="middle" x="2688" y="-68.8" font-family="Times,serif" font-size="14.00">*</text>
</g>
<!-- 140324402926672*&#45;&gt;140324402926672 -->
<g id="edge1" class="edge">
<title>140324402926672*&#45;&gt;140324402926672</title>
<path fill="none" stroke="black" d="M2715.39,-72.5C2722.78,-72.5 2731.29,-72.5 2740.33,-72.5"/>
<polygon fill="black" stroke="black" points="2740.15,-76 2750.15,-72.5 2740.15,-69 2740.15,-76"/>
</g>
<!-- 140324406247504 -->
<g id="node5" class="node">
<title>140324406247504</title>
<polygon fill="none" stroke="black" points="672,-111.5 672,-147.5 945,-147.5 945,-111.5 672,-111.5"/>
<text text-anchor="middle" x="725" y="-125.8" font-family="Times,serif" font-size="14.00">x1*w1 + x2*w2</text>
<polyline fill="none" stroke="black" points="778,-111.5 778,-147.5"/>
<text text-anchor="middle" x="820.5" y="-125.8" font-family="Times,serif" font-size="14.00">data &#45;6.0000</text>
<polyline fill="none" stroke="black" points="863,-111.5 863,-147.5"/>
<text text-anchor="middle" x="904" y="-125.8" font-family="Times,serif" font-size="14.00">grad 0.5000</text>
</g>
<!-- 140324406247632+ -->
<g id="node15" class="node">
<title>140324406247632+</title>
<ellipse fill="none" stroke="black" cx="1008" cy="-101.5" rx="27" ry="18"/>
<text text-anchor="middle" x="1008" y="-97.8" font-family="Times,serif" font-size="14.00">+</text>
</g>
<!-- 140324406247504&#45;&gt;140324406247632+ -->
<g id="edge19" class="edge">
<title>140324406247504&#45;&gt;140324406247632+</title>
<path fill="none" stroke="black" d="M936.26,-111.53C948.59,-109.78 960.29,-108.12 970.49,-106.68"/>
<polygon fill="black" stroke="black" points="970.92,-110.01 980.33,-105.14 969.94,-103.08 970.92,-110.01"/>
</g>
<!-- 140324406247504+ -->
<g id="node6" class="node">
<title>140324406247504+</title>
<ellipse fill="none" stroke="black" cx="609" cy="-129.5" rx="27" ry="18"/>
<text text-anchor="middle" x="609" y="-125.8" font-family="Times,serif" font-size="14.00">+</text>
</g>
<!-- 140324406247504+&#45;&gt;140324406247504 -->
<g id="edge2" class="edge">
<title>140324406247504+&#45;&gt;140324406247504</title>
<path fill="none" stroke="black" d="M636.23,-129.5C643.62,-129.5 652.23,-129.5 661.57,-129.5"/>
<polygon fill="black" stroke="black" points="661.4,-133 671.4,-129.5 661.4,-126 661.4,-133"/>
</g>
<!-- 140324406208464 -->
<g id="node7" class="node">
<title>140324406208464</title>
<polygon fill="none" stroke="black" points="0,-139.5 0,-175.5 200,-175.5 200,-139.5 0,-139.5"/>
<text text-anchor="middle" x="16.5" y="-153.8" font-family="Times,serif" font-size="14.00">w1</text>
<polyline fill="none" stroke="black" points="33,-139.5 33,-175.5"/>
<text text-anchor="middle" x="75.5" y="-153.8" font-family="Times,serif" font-size="14.00">data &#45;3.0000</text>
<polyline fill="none" stroke="black" points="118,-139.5 118,-175.5"/>
<text text-anchor="middle" x="159" y="-153.8" font-family="Times,serif" font-size="14.00">grad 1.0000</text>
</g>
<!-- 140324406208464&#45;&gt;140324402828688* -->
<g id="edge16" class="edge">
<title>140324406208464&#45;&gt;140324402828688*</title>
<path fill="none" stroke="black" d="M199.75,-157.5C208.59,-157.5 217.11,-157.5 224.87,-157.5"/>
<polygon fill="black" stroke="black" points="224.64,-161 234.64,-157.5 224.64,-154 224.64,-161"/>
</g>
<!-- 140324402925968 -->
<g id="node8" class="node">
<title>140324402925968</title>
<polygon fill="none" stroke="black" points="1690,-0.5 1690,-36.5 1877,-36.5 1877,-0.5 1690,-0.5"/>
<text text-anchor="middle" x="1700" y="-14.8" font-family="Times,serif" font-size="14.00"> </text>
<polyline fill="none" stroke="black" points="1710,-0.5 1710,-36.5"/>
<text text-anchor="middle" x="1752.5" y="-14.8" font-family="Times,serif" font-size="14.00">data &#45;1.0000</text>
<polyline fill="none" stroke="black" points="1795,-0.5 1795,-36.5"/>
<text text-anchor="middle" x="1836" y="-14.8" font-family="Times,serif" font-size="14.00">grad 0.1464</text>
</g>
<!-- 140324402926032+ -->
<g id="node26" class="node">
<title>140324402926032+</title>
<ellipse fill="none" stroke="black" cx="1940" cy="-45.5" rx="27" ry="18"/>
<text text-anchor="middle" x="1940" y="-41.8" font-family="Times,serif" font-size="14.00">+</text>
</g>
<!-- 140324402925968&#45;&gt;140324402926032+ -->
<g id="edge24" class="edge">
<title>140324402925968&#45;&gt;140324402926032+</title>
<path fill="none" stroke="black" d="M1876.6,-34.6C1885.74,-36.19 1894.59,-37.74 1902.61,-39.14"/>
<polygon fill="black" stroke="black" points="1901.89,-42.74 1912.35,-41.02 1903.1,-35.85 1901.89,-42.74"/>
</g>
<!-- 140324406247568 -->
<g id="node9" class="node">
<title>140324406247568</title>
<polygon fill="none" stroke="black" points="1382,-55.5 1382,-91.5 1564,-91.5 1564,-55.5 1382,-55.5"/>
<text text-anchor="middle" x="1392" y="-69.8" font-family="Times,serif" font-size="14.00"> </text>
<polyline fill="none" stroke="black" points="1402,-55.5 1402,-91.5"/>
<text text-anchor="middle" x="1442" y="-69.8" font-family="Times,serif" font-size="14.00">data 1.7627</text>
<polyline fill="none" stroke="black" points="1482,-55.5 1482,-91.5"/>
<text text-anchor="middle" x="1523" y="-69.8" font-family="Times,serif" font-size="14.00">grad 0.2500</text>
</g>
<!-- 140324402925840exp -->
<g id="node19" class="node">
<title>140324402925840exp</title>
<ellipse fill="none" stroke="black" cx="1627" cy="-73.5" rx="27" ry="18"/>
<text text-anchor="middle" x="1627" y="-69.8" font-family="Times,serif" font-size="14.00">exp</text>
</g>
<!-- 140324406247568&#45;&gt;140324402925840exp -->
<g id="edge25" class="edge">
<title>140324406247568&#45;&gt;140324402925840exp</title>
<path fill="none" stroke="black" d="M1563.74,-73.5C1572.55,-73.5 1581.1,-73.5 1588.91,-73.5"/>
<polygon fill="black" stroke="black" points="1588.75,-77 1598.75,-73.5 1588.75,-70 1588.75,-77"/>
</g>
<!-- 140324406247568* -->
<g id="node10" class="node">
<title>140324406247568*</title>
<ellipse fill="none" stroke="black" cx="1319" cy="-73.5" rx="27" ry="18"/>
<text text-anchor="middle" x="1319" y="-69.8" font-family="Times,serif" font-size="14.00">*</text>
</g>
<!-- 140324406247568*&#45;&gt;140324406247568 -->
<g id="edge3" class="edge">
<title>140324406247568*&#45;&gt;140324406247568</title>
<path fill="none" stroke="black" d="M1346.48,-73.5C1353.87,-73.5 1362.38,-73.5 1371.4,-73.5"/>
<polygon fill="black" stroke="black" points="1371.2,-77 1381.2,-73.5 1371.2,-70 1371.2,-77"/>
</g>
<!-- 140324406250128 -->
<g id="node11" class="node">
<title>140324406250128</title>
<polygon fill="none" stroke="black" points="328.5,-84.5 328.5,-120.5 543.5,-120.5 543.5,-84.5 328.5,-84.5"/>
<text text-anchor="middle" x="355" y="-98.8" font-family="Times,serif" font-size="14.00">x2*w2</text>
<polyline fill="none" stroke="black" points="381.5,-84.5 381.5,-120.5"/>
<text text-anchor="middle" x="421.5" y="-98.8" font-family="Times,serif" font-size="14.00">data 0.0000</text>
<polyline fill="none" stroke="black" points="461.5,-84.5 461.5,-120.5"/>
<text text-anchor="middle" x="502.5" y="-98.8" font-family="Times,serif" font-size="14.00">grad 0.5000</text>
</g>
<!-- 140324406250128&#45;&gt;140324406247504+ -->
<g id="edge12" class="edge">
<title>140324406250128&#45;&gt;140324406247504+</title>
<path fill="none" stroke="black" d="M543.35,-119.29C553.36,-120.87 562.97,-122.39 571.57,-123.75"/>
<polygon fill="black" stroke="black" points="570.83,-127.33 581.25,-125.43 571.92,-120.42 570.83,-127.33"/>
</g>
<!-- 140324406250128* -->
<g id="node12" class="node">
<title>140324406250128*</title>
<ellipse fill="none" stroke="black" cx="263" cy="-102.5" rx="27" ry="18"/>
<text text-anchor="middle" x="263" y="-98.8" font-family="Times,serif" font-size="14.00">*</text>
</g>
<!-- 140324406250128*&#45;&gt;140324406250128 -->
<g id="edge4" class="edge">
<title>140324406250128*&#45;&gt;140324406250128</title>
<path fill="none" stroke="black" d="M290.34,-102.5C298.41,-102.5 307.85,-102.5 317.98,-102.5"/>
<polygon fill="black" stroke="black" points="317.76,-106 327.76,-102.5 317.76,-99 317.76,-106"/>
</g>
<!-- 140324406212752 -->
<g id="node13" class="node">
<title>140324406212752</title>
<polygon fill="none" stroke="black" points="4,-84.5 4,-120.5 196,-120.5 196,-84.5 4,-84.5"/>
<text text-anchor="middle" x="19" y="-98.8" font-family="Times,serif" font-size="14.00">x2</text>
<polyline fill="none" stroke="black" points="34,-84.5 34,-120.5"/>
<text text-anchor="middle" x="74" y="-98.8" font-family="Times,serif" font-size="14.00">data 0.0000</text>
<polyline fill="none" stroke="black" points="114,-84.5 114,-120.5"/>
<text text-anchor="middle" x="155" y="-98.8" font-family="Times,serif" font-size="14.00">grad 0.5000</text>
</g>
<!-- 140324406212752&#45;&gt;140324406250128* -->
<g id="edge11" class="edge">
<title>140324406212752&#45;&gt;140324406250128*</title>
<path fill="none" stroke="black" d="M195.59,-102.5C205.88,-102.5 215.87,-102.5 224.83,-102.5"/>
<polygon fill="black" stroke="black" points="224.58,-106 234.58,-102.5 224.58,-99 224.58,-106"/>
</g>
<!-- 140324406247632 -->
<g id="node14" class="node">
<title>140324406247632</title>
<polygon fill="none" stroke="black" points="1071,-83.5 1071,-119.5 1256,-119.5 1256,-83.5 1071,-83.5"/>
<text text-anchor="middle" x="1082.5" y="-97.8" font-family="Times,serif" font-size="14.00">n</text>
<polyline fill="none" stroke="black" points="1094,-83.5 1094,-119.5"/>
<text text-anchor="middle" x="1134" y="-97.8" font-family="Times,serif" font-size="14.00">data 0.8814</text>
<polyline fill="none" stroke="black" points="1174,-83.5 1174,-119.5"/>
<text text-anchor="middle" x="1215" y="-97.8" font-family="Times,serif" font-size="14.00">grad 0.5000</text>
</g>
<!-- 140324406247632&#45;&gt;140324406247568* -->
<g id="edge26" class="edge">
<title>140324406247632&#45;&gt;140324406247568*</title>
<path fill="none" stroke="black" d="M1255.57,-84.89C1264.78,-83.21 1273.71,-81.58 1281.8,-80.1"/>
<polygon fill="black" stroke="black" points="1282.4,-83.37 1291.61,-78.13 1281.14,-76.48 1282.4,-83.37"/>
</g>
<!-- 140324406247632+&#45;&gt;140324406247632 -->
<g id="edge5" class="edge">
<title>140324406247632+&#45;&gt;140324406247632</title>
<path fill="none" stroke="black" d="M1035.39,-101.5C1042.78,-101.5 1051.29,-101.5 1060.33,-101.5"/>
<polygon fill="black" stroke="black" points="1060.15,-105 1070.15,-101.5 1060.15,-98 1060.15,-105"/>
</g>
<!-- 140324402926352 -->
<g id="node16" class="node">
<title>140324402926352</title>
<polygon fill="none" stroke="black" points="2003,-82.5 2003,-118.5 2189,-118.5 2189,-82.5 2003,-82.5"/>
<text text-anchor="middle" x="2013" y="-96.8" font-family="Times,serif" font-size="14.00"> </text>
<polyline fill="none" stroke="black" points="2023,-82.5 2023,-118.5"/>
<text text-anchor="middle" x="2063" y="-96.8" font-family="Times,serif" font-size="14.00">data 6.8284</text>
<polyline fill="none" stroke="black" points="2103,-82.5 2103,-118.5"/>
<text text-anchor="middle" x="2146" y="-96.8" font-family="Times,serif" font-size="14.00">grad &#45;0.1036</text>
</g>
<!-- 140324402926544**&#45;1 -->
<g id="node28" class="node">
<title>140324402926544**&#45;1</title>
<ellipse fill="none" stroke="black" cx="2316" cy="-100.5" rx="27" ry="18"/>
<text text-anchor="middle" x="2316" y="-96.8" font-family="Times,serif" font-size="14.00">**&#45;1</text>
</g>
<!-- 140324402926352&#45;&gt;140324402926544**&#45;1 -->
<g id="edge28" class="edge">
<title>140324402926352&#45;&gt;140324402926544**&#45;1</title>
<path fill="none" stroke="black" d="M2188.82,-100.5C2220.16,-100.5 2253.45,-100.5 2277.96,-100.5"/>
<polygon fill="black" stroke="black" points="2277.9,-104 2287.9,-100.5 2277.9,-97 2277.9,-104"/>
</g>
<!-- 140324402926352+&#45;&gt;140324402926352 -->
<g id="edge6" class="edge">
<title>140324402926352+&#45;&gt;140324402926352</title>
<path fill="none" stroke="black" d="M1967.47,-100.5C1974.83,-100.5 1983.29,-100.5 1992.27,-100.5"/>
<polygon fill="black" stroke="black" points="1992.03,-104 2002.03,-100.5 1992.03,-97 1992.03,-104"/>
</g>
<!-- 140324402925840 -->
<g id="node18" class="node">
<title>140324402925840</title>
<polygon fill="none" stroke="black" points="1692.5,-55.5 1692.5,-91.5 1874.5,-91.5 1874.5,-55.5 1692.5,-55.5"/>
<text text-anchor="middle" x="1702.5" y="-69.8" font-family="Times,serif" font-size="14.00"> </text>
<polyline fill="none" stroke="black" points="1712.5,-55.5 1712.5,-91.5"/>
<text text-anchor="middle" x="1752.5" y="-69.8" font-family="Times,serif" font-size="14.00">data 5.8284</text>
<polyline fill="none" stroke="black" points="1792.5,-55.5 1792.5,-91.5"/>
<text text-anchor="middle" x="1833.5" y="-69.8" font-family="Times,serif" font-size="14.00">grad 0.0429</text>
</g>
<!-- 140324402925840&#45;&gt;140324402926352+ -->
<g id="edge18" class="edge">
<title>140324402925840&#45;&gt;140324402926352+</title>
<path fill="none" stroke="black" d="M1874.37,-89.21C1884.34,-90.95 1894.03,-92.64 1902.73,-94.16"/>
<polygon fill="black" stroke="black" points="1902.1,-97.78 1912.55,-96.05 1903.3,-90.88 1902.1,-97.78"/>
</g>
<!-- 140324402925840&#45;&gt;140324402926032+ -->
<g id="edge20" class="edge">
<title>140324402925840&#45;&gt;140324402926032+</title>
<path fill="none" stroke="black" d="M1874.37,-57.21C1884.34,-55.41 1894.03,-53.65 1902.73,-52.07"/>
<polygon fill="black" stroke="black" points="1903.34,-55.34 1912.55,-50.11 1902.09,-48.45 1903.34,-55.34"/>
</g>
<!-- 140324402925840exp&#45;&gt;140324402925840 -->
<g id="edge7" class="edge">
<title>140324402925840exp&#45;&gt;140324402925840</title>
<path fill="none" stroke="black" d="M1654.21,-73.5C1662.24,-73.5 1671.6,-73.5 1681.54,-73.5"/>
<polygon fill="black" stroke="black" points="1681.52,-77 1691.52,-73.5 1681.52,-70 1681.52,-77"/>
</g>
<!-- 140324406214608 -->
<g id="node20" class="node">
<title>140324406214608</title>
<polygon fill="none" stroke="black" points="716,-56.5 716,-92.5 901,-92.5 901,-56.5 716,-56.5"/>
<text text-anchor="middle" x="727.5" y="-70.8" font-family="Times,serif" font-size="14.00">b</text>
<polyline fill="none" stroke="black" points="739,-56.5 739,-92.5"/>
<text text-anchor="middle" x="779" y="-70.8" font-family="Times,serif" font-size="14.00">data 6.8814</text>
<polyline fill="none" stroke="black" points="819,-56.5 819,-92.5"/>
<text text-anchor="middle" x="860" y="-70.8" font-family="Times,serif" font-size="14.00">grad 0.5000</text>
</g>
<!-- 140324406214608&#45;&gt;140324406247632+ -->
<g id="edge22" class="edge">
<title>140324406214608&#45;&gt;140324406247632+</title>
<path fill="none" stroke="black" d="M900.73,-86.97C925.52,-90.36 950.94,-93.84 970.7,-96.54"/>
<polygon fill="black" stroke="black" points="969.97,-100.11 980.35,-97.99 970.91,-93.17 969.97,-100.11"/>
</g>
<!-- 140324406214416 -->
<g id="node21" class="node">
<title>140324406214416</title>
<polygon fill="none" stroke="black" points="2.5,-29.5 2.5,-65.5 197.5,-65.5 197.5,-29.5 2.5,-29.5"/>
<text text-anchor="middle" x="19" y="-43.8" font-family="Times,serif" font-size="14.00">w2</text>
<polyline fill="none" stroke="black" points="35.5,-29.5 35.5,-65.5"/>
<text text-anchor="middle" x="75.5" y="-43.8" font-family="Times,serif" font-size="14.00">data 1.0000</text>
<polyline fill="none" stroke="black" points="115.5,-29.5 115.5,-65.5"/>
<text text-anchor="middle" x="156.5" y="-43.8" font-family="Times,serif" font-size="14.00">grad 0.0000</text>
</g>
<!-- 140324406214416&#45;&gt;140324406250128* -->
<g id="edge13" class="edge">
<title>140324406214416&#45;&gt;140324406250128*</title>
<path fill="none" stroke="black" d="M169.02,-65.42C179.47,-68.56 190.08,-71.95 200,-75.5 210.07,-79.1 220.82,-83.55 230.49,-87.8"/>
<polygon fill="black" stroke="black" points="228.92,-91.38 239.48,-92.27 231.79,-84.99 228.92,-91.38"/>
</g>
<!-- 140324406251344 -->
<g id="node22" class="node">
<title>140324406251344</title>
<polygon fill="none" stroke="black" points="1072.5,-28.5 1072.5,-64.5 1254.5,-64.5 1254.5,-28.5 1072.5,-28.5"/>
<text text-anchor="middle" x="1082.5" y="-42.8" font-family="Times,serif" font-size="14.00"> </text>
<polyline fill="none" stroke="black" points="1092.5,-28.5 1092.5,-64.5"/>
<text text-anchor="middle" x="1132.5" y="-42.8" font-family="Times,serif" font-size="14.00">data 2.0000</text>
<polyline fill="none" stroke="black" points="1172.5,-28.5 1172.5,-64.5"/>
<text text-anchor="middle" x="1213.5" y="-42.8" font-family="Times,serif" font-size="14.00">grad 0.2203</text>
</g>
<!-- 140324406251344&#45;&gt;140324406247568* -->
<g id="edge27" class="edge">
<title>140324406251344&#45;&gt;140324406247568*</title>
<path fill="none" stroke="black" d="M1254.24,-62.28C1264,-64 1273.47,-65.67 1282,-67.17"/>
<polygon fill="black" stroke="black" points="1281.16,-70.75 1291.61,-69.03 1282.37,-63.85 1281.16,-70.75"/>
</g>
<!-- 140324402828688 -->
<g id="node23" class="node">
<title>140324402828688</title>
<polygon fill="none" stroke="black" points="326,-139.5 326,-175.5 546,-175.5 546,-139.5 326,-139.5"/>
<text text-anchor="middle" x="352.5" y="-153.8" font-family="Times,serif" font-size="14.00">x1*w1</text>
<polyline fill="none" stroke="black" points="379,-139.5 379,-175.5"/>
<text text-anchor="middle" x="421.5" y="-153.8" font-family="Times,serif" font-size="14.00">data &#45;6.0000</text>
<polyline fill="none" stroke="black" points="464,-139.5 464,-175.5"/>
<text text-anchor="middle" x="505" y="-153.8" font-family="Times,serif" font-size="14.00">grad 0.5000</text>
</g>
<!-- 140324402828688&#45;&gt;140324406247504+ -->
<g id="edge15" class="edge">
<title>140324402828688&#45;&gt;140324406247504+</title>
<path fill="none" stroke="black" d="M545.78,-139.69C555,-138.18 563.84,-136.73 571.8,-135.43"/>
<polygon fill="black" stroke="black" points="572.13,-138.76 581.43,-133.69 571,-131.85 572.13,-138.76"/>
</g>
<!-- 140324402828688*&#45;&gt;140324402828688 -->
<g id="edge8" class="edge">
<title>140324402828688*&#45;&gt;140324402828688</title>
<path fill="none" stroke="black" d="M290.34,-157.5C297.68,-157.5 306.16,-157.5 315.26,-157.5"/>
<polygon fill="black" stroke="black" points="315.2,-161 325.2,-157.5 315.2,-154 315.2,-161"/>
</g>
<!-- 140324402926032 -->
<g id="node25" class="node">
<title>140324402926032</title>
<polygon fill="none" stroke="black" points="2225,-27.5 2225,-63.5 2407,-63.5 2407,-27.5 2225,-27.5"/>
<text text-anchor="middle" x="2235" y="-41.8" font-family="Times,serif" font-size="14.00"> </text>
<polyline fill="none" stroke="black" points="2245,-27.5 2245,-63.5"/>
<text text-anchor="middle" x="2285" y="-41.8" font-family="Times,serif" font-size="14.00">data 4.8284</text>
<polyline fill="none" stroke="black" points="2325,-27.5 2325,-63.5"/>
<text text-anchor="middle" x="2366" y="-41.8" font-family="Times,serif" font-size="14.00">grad 0.1464</text>
</g>
<!-- 140324402926032&#45;&gt;140324402926672* -->
<g id="edge14" class="edge">
<title>140324402926032&#45;&gt;140324402926672*</title>
<path fill="none" stroke="black" d="M2406.57,-52.04C2484.6,-57.73 2593.83,-65.7 2650.17,-69.81"/>
<polygon fill="black" stroke="black" points="2649.8,-73.37 2660.03,-70.6 2650.31,-66.39 2649.8,-73.37"/>
</g>
<!-- 140324402926032+&#45;&gt;140324402926032 -->
<g id="edge9" class="edge">
<title>140324402926032+&#45;&gt;140324402926032</title>
<path fill="none" stroke="black" d="M1967.3,-45.5C2017.79,-45.5 2130.71,-45.5 2214.24,-45.5"/>
<polygon fill="black" stroke="black" points="2214.05,-49 2224.05,-45.5 2214.05,-42 2214.05,-49"/>
</g>
<!-- 140324402926544 -->
<g id="node27" class="node">
<title>140324402926544</title>
<polygon fill="none" stroke="black" points="2443,-80.5 2443,-116.5 2625,-116.5 2625,-80.5 2443,-80.5"/>
<text text-anchor="middle" x="2453" y="-94.8" font-family="Times,serif" font-size="14.00"> </text>
<polyline fill="none" stroke="black" points="2463,-80.5 2463,-116.5"/>
<text text-anchor="middle" x="2503" y="-94.8" font-family="Times,serif" font-size="14.00">data 0.1464</text>
<polyline fill="none" stroke="black" points="2543,-80.5 2543,-116.5"/>
<text text-anchor="middle" x="2584" y="-94.8" font-family="Times,serif" font-size="14.00">grad 4.8284</text>
</g>
<!-- 140324402926544&#45;&gt;140324402926672* -->
<g id="edge21" class="edge">
<title>140324402926544&#45;&gt;140324402926672*</title>
<path fill="none" stroke="black" d="M2624.74,-83.15C2633.82,-81.6 2642.64,-80.09 2650.64,-78.72"/>
<polygon fill="black" stroke="black" points="2651.09,-82.02 2660.35,-76.89 2649.91,-75.12 2651.09,-82.02"/>
</g>
<!-- 140324402926544**&#45;1&#45;&gt;140324402926544 -->
<g id="edge10" class="edge">
<title>140324402926544**&#45;1&#45;&gt;140324402926544</title>
<path fill="none" stroke="black" d="M2343.49,-100.25C2365.95,-100.05 2399.67,-99.73 2432.46,-99.43"/>
<polygon fill="black" stroke="black" points="2432.09,-102.93 2442.06,-99.33 2432.03,-95.93 2432.09,-102.93"/>
</g>
</g>
</svg>
