<?xml version="1.0" encoding="UTF-8" standalone="no"?>
<!DOCTYPE svg PUBLIC "-//W3C//DTD SVG 1.1//EN"
 "http://www.w3.org/Graphics/SVG/1.1/DTD/svg11.dtd">
<!-- Generated by graphviz version 8.0.3 (0)
 -->
<!-- Pages: 1 -->
<svg width="1575pt" height="210pt"
 viewBox="0.00 0.00 1575.00 210.00" xmlns="http://www.w3.org/2000/svg" xmlns:xlink="http://www.w3.org/1999/xlink">
<g id="graph0" class="graph" transform="scale(1 1) rotate(0) translate(4 206)">
<polygon fill="white" stroke="none" points="-4,4 -4,-206 1571,-206 1571,4 -4,4"/>
<!-- 139867707365456 -->
<g id="node1" class="node">
<title>139867707365456</title>
<polygon fill="none" stroke="black" points="1382,-109.5 1382,-145.5 1567,-145.5 1567,-109.5 1382,-109.5"/>
<text text-anchor="middle" x="1393.5" y="-123.8" font-family="Times,serif" font-size="14.00">o</text>
<polyline fill="none" stroke="black" points="1405,-109.5 1405,-145.5"/>
<text text-anchor="middle" x="1445" y="-123.8" font-family="Times,serif" font-size="14.00">data 0.7071</text>
<polyline fill="none" stroke="black" points="1485,-109.5 1485,-145.5"/>
<text text-anchor="middle" x="1526" y="-123.8" font-family="Times,serif" font-size="14.00">grad 1.0000</text>
</g>
<!-- 139867707365456tanh -->
<g id="node2" class="node">
<title>139867707365456tanh</title>
<ellipse fill="none" stroke="black" cx="1319" cy="-127.5" rx="27" ry="18"/>
<text text-anchor="middle" x="1319" y="-123.8" font-family="Times,serif" font-size="14.00">tanh</text>
</g>
<!-- 139867707365456tanh&#45;&gt;139867707365456 -->
<g id="edge1" class="edge">
<title>139867707365456tanh&#45;&gt;139867707365456</title>
<path fill="none" stroke="black" d="M1346.39,-127.5C1353.78,-127.5 1362.29,-127.5 1371.33,-127.5"/>
<polygon fill="black" stroke="black" points="1371.15,-131 1381.15,-127.5 1371.15,-124 1371.15,-131"/>
</g>
<!-- 139867707362896 -->
<g id="node3" class="node">
<title>139867707362896</title>
<polygon fill="none" stroke="black" points="326,-110.5 326,-146.5 546,-146.5 546,-110.5 326,-110.5"/>
<text text-anchor="middle" x="352.5" y="-124.8" font-family="Times,serif" font-size="14.00">x1*w1</text>
<polyline fill="none" stroke="black" points="379,-110.5 379,-146.5"/>
<text text-anchor="middle" x="421.5" y="-124.8" font-family="Times,serif" font-size="14.00">data &#45;6.0000</text>
<polyline fill="none" stroke="black" points="464,-110.5 464,-146.5"/>
<text text-anchor="middle" x="505" y="-124.8" font-family="Times,serif" font-size="14.00">grad 0.5000</text>
</g>
<!-- 139867707362640+ -->
<g id="node14" class="node">
<title>139867707362640+</title>
<ellipse fill="none" stroke="black" cx="609" cy="-100.5" rx="27" ry="18"/>
<text text-anchor="middle" x="609" y="-96.8" font-family="Times,serif" font-size="14.00">+</text>
</g>
<!-- 139867707362896&#45;&gt;139867707362640+ -->
<g id="edge13" class="edge">
<title>139867707362896&#45;&gt;139867707362640+</title>
<path fill="none" stroke="black" d="M545.78,-110.69C555,-109.18 563.84,-107.73 571.8,-106.43"/>
<polygon fill="black" stroke="black" points="572.13,-109.76 581.43,-104.69 571,-102.85 572.13,-109.76"/>
</g>
<!-- 139867707362896* -->
<g id="node4" class="node">
<title>139867707362896*</title>
<ellipse fill="none" stroke="black" cx="263" cy="-128.5" rx="27" ry="18"/>
<text text-anchor="middle" x="263" y="-124.8" font-family="Times,serif" font-size="14.00">*</text>
</g>
<!-- 139867707362896*&#45;&gt;139867707362896 -->
<g id="edge2" class="edge">
<title>139867707362896*&#45;&gt;139867707362896</title>
<path fill="none" stroke="black" d="M290.34,-128.5C297.68,-128.5 306.16,-128.5 315.26,-128.5"/>
<polygon fill="black" stroke="black" points="315.2,-132 325.2,-128.5 315.2,-125 315.2,-132"/>
</g>
<!-- 139867707360912 -->
<g id="node5" class="node">
<title>139867707360912</title>
<polygon fill="none" stroke="black" points="2.5,-55.5 2.5,-91.5 197.5,-91.5 197.5,-55.5 2.5,-55.5"/>
<text text-anchor="middle" x="19" y="-69.8" font-family="Times,serif" font-size="14.00">w2</text>
<polyline fill="none" stroke="black" points="35.5,-55.5 35.5,-91.5"/>
<text text-anchor="middle" x="75.5" y="-69.8" font-family="Times,serif" font-size="14.00">data 1.0000</text>
<polyline fill="none" stroke="black" points="115.5,-55.5 115.5,-91.5"/>
<text text-anchor="middle" x="156.5" y="-69.8" font-family="Times,serif" font-size="14.00">grad 0.0000</text>
</g>
<!-- 139867707363088* -->
<g id="node12" class="node">
<title>139867707363088*</title>
<ellipse fill="none" stroke="black" cx="263" cy="-73.5" rx="27" ry="18"/>
<text text-anchor="middle" x="263" y="-69.8" font-family="Times,serif" font-size="14.00">*</text>
</g>
<!-- 139867707360912&#45;&gt;139867707363088* -->
<g id="edge6" class="edge">
<title>139867707360912&#45;&gt;139867707363088*</title>
<path fill="none" stroke="black" d="M197.44,-73.5C207.11,-73.5 216.46,-73.5 224.9,-73.5"/>
<polygon fill="black" stroke="black" points="224.79,-77 234.79,-73.5 224.79,-70 224.79,-77"/>
</g>
<!-- 139867707314320 -->
<g id="node6" class="node">
<title>139867707314320</title>
<polygon fill="none" stroke="black" points="2,-165.5 2,-201.5 198,-201.5 198,-165.5 2,-165.5"/>
<text text-anchor="middle" x="17" y="-179.8" font-family="Times,serif" font-size="14.00">x1</text>
<polyline fill="none" stroke="black" points="32,-165.5 32,-201.5"/>
<text text-anchor="middle" x="72" y="-179.8" font-family="Times,serif" font-size="14.00">data 2.0000</text>
<polyline fill="none" stroke="black" points="112,-165.5 112,-201.5"/>
<text text-anchor="middle" x="155" y="-179.8" font-family="Times,serif" font-size="14.00">grad &#45;1.5000</text>
</g>
<!-- 139867707314320&#45;&gt;139867707362896* -->
<g id="edge9" class="edge">
<title>139867707314320&#45;&gt;139867707362896*</title>
<path fill="none" stroke="black" d="M172.27,-165.52C181.67,-162.72 191.12,-159.7 200,-156.5 210.31,-152.79 221.29,-148.09 231.1,-143.61"/>
<polygon fill="black" stroke="black" points="232.25,-146.47 239.82,-139.07 229.28,-140.13 232.25,-146.47"/>
</g>
<!-- 139867704302992 -->
<g id="node7" class="node">
<title>139867704302992</title>
<polygon fill="none" stroke="black" points="0,-110.5 0,-146.5 200,-146.5 200,-110.5 0,-110.5"/>
<text text-anchor="middle" x="16.5" y="-124.8" font-family="Times,serif" font-size="14.00">w1</text>
<polyline fill="none" stroke="black" points="33,-110.5 33,-146.5"/>
<text text-anchor="middle" x="75.5" y="-124.8" font-family="Times,serif" font-size="14.00">data &#45;3.0000</text>
<polyline fill="none" stroke="black" points="118,-110.5 118,-146.5"/>
<text text-anchor="middle" x="159" y="-124.8" font-family="Times,serif" font-size="14.00">grad 1.0000</text>
</g>
<!-- 139867704302992&#45;&gt;139867707362896* -->
<g id="edge10" class="edge">
<title>139867704302992&#45;&gt;139867707362896*</title>
<path fill="none" stroke="black" d="M199.75,-128.5C208.59,-128.5 217.11,-128.5 224.87,-128.5"/>
<polygon fill="black" stroke="black" points="224.64,-132 234.64,-128.5 224.64,-125 224.64,-132"/>
</g>
<!-- 139867707366672 -->
<g id="node8" class="node">
<title>139867707366672</title>
<polygon fill="none" stroke="black" points="1071,-109.5 1071,-145.5 1256,-145.5 1256,-109.5 1071,-109.5"/>
<text text-anchor="middle" x="1082.5" y="-123.8" font-family="Times,serif" font-size="14.00">n</text>
<polyline fill="none" stroke="black" points="1094,-109.5 1094,-145.5"/>
<text text-anchor="middle" x="1134" y="-123.8" font-family="Times,serif" font-size="14.00">data 0.8814</text>
<polyline fill="none" stroke="black" points="1174,-109.5 1174,-145.5"/>
<text text-anchor="middle" x="1215" y="-123.8" font-family="Times,serif" font-size="14.00">grad 0.5000</text>
</g>
<!-- 139867707366672&#45;&gt;139867707365456tanh -->
<g id="edge12" class="edge">
<title>139867707366672&#45;&gt;139867707365456tanh</title>
<path fill="none" stroke="black" d="M1255.57,-127.5C1264.41,-127.5 1273,-127.5 1280.83,-127.5"/>
<polygon fill="black" stroke="black" points="1280.7,-131 1290.7,-127.5 1280.7,-124 1280.7,-131"/>
</g>
<!-- 139867707366672+ -->
<g id="node9" class="node">
<title>139867707366672+</title>
<ellipse fill="none" stroke="black" cx="1008" cy="-127.5" rx="27" ry="18"/>
<text text-anchor="middle" x="1008" y="-123.8" font-family="Times,serif" font-size="14.00">+</text>
</g>
<!-- 139867707366672+&#45;&gt;139867707366672 -->
<g id="edge3" class="edge">
<title>139867707366672+&#45;&gt;139867707366672</title>
<path fill="none" stroke="black" d="M1035.39,-127.5C1042.78,-127.5 1051.29,-127.5 1060.33,-127.5"/>
<polygon fill="black" stroke="black" points="1060.15,-131 1070.15,-127.5 1060.15,-124 1060.15,-131"/>
</g>
<!-- 139867707362576 -->
<g id="node10" class="node">
<title>139867707362576</title>
<polygon fill="none" stroke="black" points="716,-137.5 716,-173.5 901,-173.5 901,-137.5 716,-137.5"/>
<text text-anchor="middle" x="727.5" y="-151.8" font-family="Times,serif" font-size="14.00">b</text>
<polyline fill="none" stroke="black" points="739,-137.5 739,-173.5"/>
<text text-anchor="middle" x="779" y="-151.8" font-family="Times,serif" font-size="14.00">data 6.8814</text>
<polyline fill="none" stroke="black" points="819,-137.5 819,-173.5"/>
<text text-anchor="middle" x="860" y="-151.8" font-family="Times,serif" font-size="14.00">grad 0.5000</text>
</g>
<!-- 139867707362576&#45;&gt;139867707366672+ -->
<g id="edge8" class="edge">
<title>139867707362576&#45;&gt;139867707366672+</title>
<path fill="none" stroke="black" d="M900.73,-142.57C925.52,-139.05 950.94,-135.45 970.7,-132.65"/>
<polygon fill="black" stroke="black" points="970.94,-136.01 980.35,-131.14 969.96,-129.08 970.94,-136.01"/>
</g>
<!-- 139867707363088 -->
<g id="node11" class="node">
<title>139867707363088</title>
<polygon fill="none" stroke="black" points="328.5,-55.5 328.5,-91.5 543.5,-91.5 543.5,-55.5 328.5,-55.5"/>
<text text-anchor="middle" x="355" y="-69.8" font-family="Times,serif" font-size="14.00">x2*w2</text>
<polyline fill="none" stroke="black" points="381.5,-55.5 381.5,-91.5"/>
<text text-anchor="middle" x="421.5" y="-69.8" font-family="Times,serif" font-size="14.00">data 0.0000</text>
<polyline fill="none" stroke="black" points="461.5,-55.5 461.5,-91.5"/>
<text text-anchor="middle" x="502.5" y="-69.8" font-family="Times,serif" font-size="14.00">grad 0.5000</text>
</g>
<!-- 139867707363088&#45;&gt;139867707362640+ -->
<g id="edge14" class="edge">
<title>139867707363088&#45;&gt;139867707362640+</title>
<path fill="none" stroke="black" d="M543.35,-90.29C553.36,-91.87 562.97,-93.39 571.57,-94.75"/>
<polygon fill="black" stroke="black" points="570.83,-98.33 581.25,-96.43 571.92,-91.42 570.83,-98.33"/>
</g>
<!-- 139867707363088*&#45;&gt;139867707363088 -->
<g id="edge4" class="edge">
<title>139867707363088*&#45;&gt;139867707363088</title>
<path fill="none" stroke="black" d="M290.34,-73.5C298.41,-73.5 307.85,-73.5 317.98,-73.5"/>
<polygon fill="black" stroke="black" points="317.76,-77 327.76,-73.5 317.76,-70 317.76,-77"/>
</g>
<!-- 139867707362640 -->
<g id="node13" class="node">
<title>139867707362640</title>
<polygon fill="none" stroke="black" points="672,-82.5 672,-118.5 945,-118.5 945,-82.5 672,-82.5"/>
<text text-anchor="middle" x="725" y="-96.8" font-family="Times,serif" font-size="14.00">x1*w1 + x2*w2</text>
<polyline fill="none" stroke="black" points="778,-82.5 778,-118.5"/>
<text text-anchor="middle" x="820.5" y="-96.8" font-family="Times,serif" font-size="14.00">data &#45;6.0000</text>
<polyline fill="none" stroke="black" points="863,-82.5 863,-118.5"/>
<text text-anchor="middle" x="904" y="-96.8" font-family="Times,serif" font-size="14.00">grad 0.5000</text>
</g>
<!-- 139867707362640&#45;&gt;139867707366672+ -->
<g id="edge11" class="edge">
<title>139867707362640&#45;&gt;139867707366672+</title>
<path fill="none" stroke="black" d="M940.96,-118.47C951.54,-119.92 961.56,-121.29 970.45,-122.5"/>
<polygon fill="black" stroke="black" points="969.67,-126.07 980.06,-123.95 970.62,-119.13 969.67,-126.07"/>
</g>
<!-- 139867707362640+&#45;&gt;139867707362640 -->
<g id="edge5" class="edge">
<title>139867707362640+&#45;&gt;139867707362640</title>
<path fill="none" stroke="black" d="M636.23,-100.5C643.62,-100.5 652.23,-100.5 661.57,-100.5"/>
<polygon fill="black" stroke="black" points="661.4,-104 671.4,-100.5 661.4,-97 661.4,-104"/>
</g>
<!-- 139867707318160 -->
<g id="node15" class="node">
<title>139867707318160</title>
<polygon fill="none" stroke="black" points="4,-0.5 4,-36.5 196,-36.5 196,-0.5 4,-0.5"/>
<text text-anchor="middle" x="19" y="-14.8" font-family="Times,serif" font-size="14.00">x2</text>
<polyline fill="none" stroke="black" points="34,-0.5 34,-36.5"/>
<text text-anchor="middle" x="74" y="-14.8" font-family="Times,serif" font-size="14.00">data 0.0000</text>
<polyline fill="none" stroke="black" points="114,-0.5 114,-36.5"/>
<text text-anchor="middle" x="155" y="-14.8" font-family="Times,serif" font-size="14.00">grad 0.5000</text>
</g>
<!-- 139867707318160&#45;&gt;139867707363088* -->
<g id="edge7" class="edge">
<title>139867707318160&#45;&gt;139867707363088*</title>
<path fill="none" stroke="black" d="M169.02,-36.42C179.47,-39.56 190.08,-42.95 200,-46.5 210.07,-50.1 220.82,-54.55 230.49,-58.8"/>
<polygon fill="black" stroke="black" points="228.92,-62.38 239.48,-63.27 231.79,-55.99 228.92,-62.38"/>
</g>
</g>
</svg>
