<?xml version="1.0" encoding="UTF-8" standalone="no"?>
<!DOCTYPE svg PUBLIC "-//W3C//DTD SVG 1.1//EN"
 "http://www.w3.org/Graphics/SVG/1.1/DTD/svg11.dtd">
<!-- Generated by graphviz version 8.0.3 (0)
 -->
<!-- Pages: 1 -->
<svg width="1575pt" height="210pt"
 viewBox="0.00 0.00 1575.00 210.00" xmlns="http://www.w3.org/2000/svg" xmlns:xlink="http://www.w3.org/1999/xlink">
<g id="graph0" class="graph" transform="scale(1 1) rotate(0) translate(4 206)">
<polygon fill="white" stroke="none" points="-4,4 -4,-206 1571,-206 1571,4 -4,4"/>
<!-- 139724327785488 -->
<g id="node1" class="node">
<title>139724327785488</title>
<polygon fill="none" stroke="black" points="1071,-54.5 1071,-90.5 1256,-90.5 1256,-54.5 1071,-54.5"/>
<text text-anchor="middle" x="1082.5" y="-68.8" font-family="Times,serif" font-size="14.00">n</text>
<polyline fill="none" stroke="black" points="1094,-54.5 1094,-90.5"/>
<text text-anchor="middle" x="1134" y="-68.8" font-family="Times,serif" font-size="14.00">data 0.8814</text>
<polyline fill="none" stroke="black" points="1174,-54.5 1174,-90.5"/>
<text text-anchor="middle" x="1215" y="-68.8" font-family="Times,serif" font-size="14.00">grad 0.5000</text>
</g>
<!-- 139724327786192tanh -->
<g id="node8" class="node">
<title>139724327786192tanh</title>
<ellipse fill="none" stroke="black" cx="1319" cy="-72.5" rx="27" ry="18"/>
<text text-anchor="middle" x="1319" y="-68.8" font-family="Times,serif" font-size="14.00">tanh</text>
</g>
<!-- 139724327785488&#45;&gt;139724327786192tanh -->
<g id="edge11" class="edge">
<title>139724327785488&#45;&gt;139724327786192tanh</title>
<path fill="none" stroke="black" d="M1255.57,-72.5C1264.41,-72.5 1273,-72.5 1280.83,-72.5"/>
<polygon fill="black" stroke="black" points="1280.7,-76 1290.7,-72.5 1280.7,-69 1280.7,-76"/>
</g>
<!-- 139724327785488+ -->
<g id="node2" class="node">
<title>139724327785488+</title>
<ellipse fill="none" stroke="black" cx="1008" cy="-72.5" rx="27" ry="18"/>
<text text-anchor="middle" x="1008" y="-68.8" font-family="Times,serif" font-size="14.00">+</text>
</g>
<!-- 139724327785488+&#45;&gt;139724327785488 -->
<g id="edge1" class="edge">
<title>139724327785488+&#45;&gt;139724327785488</title>
<path fill="none" stroke="black" d="M1035.39,-72.5C1042.78,-72.5 1051.29,-72.5 1060.33,-72.5"/>
<polygon fill="black" stroke="black" points="1060.15,-76 1070.15,-72.5 1060.15,-69 1060.15,-76"/>
</g>
<!-- 139724333196432 -->
<g id="node3" class="node">
<title>139724333196432</title>
<polygon fill="none" stroke="black" points="0,-165.5 0,-201.5 200,-201.5 200,-165.5 0,-165.5"/>
<text text-anchor="middle" x="16.5" y="-179.8" font-family="Times,serif" font-size="14.00">w1</text>
<polyline fill="none" stroke="black" points="33,-165.5 33,-201.5"/>
<text text-anchor="middle" x="75.5" y="-179.8" font-family="Times,serif" font-size="14.00">data &#45;3.0000</text>
<polyline fill="none" stroke="black" points="118,-165.5 118,-201.5"/>
<text text-anchor="middle" x="159" y="-179.8" font-family="Times,serif" font-size="14.00">grad 1.0000</text>
</g>
<!-- 139724329193616* -->
<g id="node5" class="node">
<title>139724329193616*</title>
<ellipse fill="none" stroke="black" cx="263" cy="-128.5" rx="27" ry="18"/>
<text text-anchor="middle" x="263" y="-124.8" font-family="Times,serif" font-size="14.00">*</text>
</g>
<!-- 139724333196432&#45;&gt;139724329193616* -->
<g id="edge14" class="edge">
<title>139724333196432&#45;&gt;139724329193616*</title>
<path fill="none" stroke="black" d="M172.27,-165.52C181.67,-162.72 191.12,-159.7 200,-156.5 210.31,-152.79 221.29,-148.09 231.1,-143.61"/>
<polygon fill="black" stroke="black" points="232.25,-146.47 239.82,-139.07 229.28,-140.13 232.25,-146.47"/>
</g>
<!-- 139724329193616 -->
<g id="node4" class="node">
<title>139724329193616</title>
<polygon fill="none" stroke="black" points="326,-110.5 326,-146.5 546,-146.5 546,-110.5 326,-110.5"/>
<text text-anchor="middle" x="352.5" y="-124.8" font-family="Times,serif" font-size="14.00">x1*w1</text>
<polyline fill="none" stroke="black" points="379,-110.5 379,-146.5"/>
<text text-anchor="middle" x="421.5" y="-124.8" font-family="Times,serif" font-size="14.00">data &#45;6.0000</text>
<polyline fill="none" stroke="black" points="464,-110.5 464,-146.5"/>
<text text-anchor="middle" x="505" y="-124.8" font-family="Times,serif" font-size="14.00">grad 0.5000</text>
</g>
<!-- 139724327784720+ -->
<g id="node11" class="node">
<title>139724327784720+</title>
<ellipse fill="none" stroke="black" cx="609" cy="-100.5" rx="27" ry="18"/>
<text text-anchor="middle" x="609" y="-96.8" font-family="Times,serif" font-size="14.00">+</text>
</g>
<!-- 139724329193616&#45;&gt;139724327784720+ -->
<g id="edge13" class="edge">
<title>139724329193616&#45;&gt;139724327784720+</title>
<path fill="none" stroke="black" d="M545.78,-110.69C555,-109.18 563.84,-107.73 571.8,-106.43"/>
<polygon fill="black" stroke="black" points="572.13,-109.76 581.43,-104.69 571,-102.85 572.13,-109.76"/>
</g>
<!-- 139724329193616*&#45;&gt;139724329193616 -->
<g id="edge2" class="edge">
<title>139724329193616*&#45;&gt;139724329193616</title>
<path fill="none" stroke="black" d="M290.34,-128.5C297.68,-128.5 306.16,-128.5 315.26,-128.5"/>
<polygon fill="black" stroke="black" points="315.2,-132 325.2,-128.5 315.2,-125 315.2,-132"/>
</g>
<!-- 139724333194896 -->
<g id="node6" class="node">
<title>139724333194896</title>
<polygon fill="none" stroke="black" points="2.5,-55.5 2.5,-91.5 197.5,-91.5 197.5,-55.5 2.5,-55.5"/>
<text text-anchor="middle" x="19" y="-69.8" font-family="Times,serif" font-size="14.00">w2</text>
<polyline fill="none" stroke="black" points="35.5,-55.5 35.5,-91.5"/>
<text text-anchor="middle" x="75.5" y="-69.8" font-family="Times,serif" font-size="14.00">data 1.0000</text>
<polyline fill="none" stroke="black" points="115.5,-55.5 115.5,-91.5"/>
<text text-anchor="middle" x="156.5" y="-69.8" font-family="Times,serif" font-size="14.00">grad 0.0000</text>
</g>
<!-- 139724329190160* -->
<g id="node13" class="node">
<title>139724329190160*</title>
<ellipse fill="none" stroke="black" cx="263" cy="-73.5" rx="27" ry="18"/>
<text text-anchor="middle" x="263" y="-69.8" font-family="Times,serif" font-size="14.00">*</text>
</g>
<!-- 139724333194896&#45;&gt;139724329190160* -->
<g id="edge7" class="edge">
<title>139724333194896&#45;&gt;139724329190160*</title>
<path fill="none" stroke="black" d="M197.44,-73.5C207.11,-73.5 216.46,-73.5 224.9,-73.5"/>
<polygon fill="black" stroke="black" points="224.79,-77 234.79,-73.5 224.79,-70 224.79,-77"/>
</g>
<!-- 139724327786192 -->
<g id="node7" class="node">
<title>139724327786192</title>
<polygon fill="none" stroke="black" points="1382,-54.5 1382,-90.5 1567,-90.5 1567,-54.5 1382,-54.5"/>
<text text-anchor="middle" x="1393.5" y="-68.8" font-family="Times,serif" font-size="14.00">o</text>
<polyline fill="none" stroke="black" points="1405,-54.5 1405,-90.5"/>
<text text-anchor="middle" x="1445" y="-68.8" font-family="Times,serif" font-size="14.00">data 0.7071</text>
<polyline fill="none" stroke="black" points="1485,-54.5 1485,-90.5"/>
<text text-anchor="middle" x="1526" y="-68.8" font-family="Times,serif" font-size="14.00">grad 1.0000</text>
</g>
<!-- 139724327786192tanh&#45;&gt;139724327786192 -->
<g id="edge3" class="edge">
<title>139724327786192tanh&#45;&gt;139724327786192</title>
<path fill="none" stroke="black" d="M1346.39,-72.5C1353.78,-72.5 1362.29,-72.5 1371.33,-72.5"/>
<polygon fill="black" stroke="black" points="1371.15,-76 1381.15,-72.5 1371.15,-69 1371.15,-76"/>
</g>
<!-- 139724331332304 -->
<g id="node9" class="node">
<title>139724331332304</title>
<polygon fill="none" stroke="black" points="2,-110.5 2,-146.5 198,-146.5 198,-110.5 2,-110.5"/>
<text text-anchor="middle" x="17" y="-124.8" font-family="Times,serif" font-size="14.00">x1</text>
<polyline fill="none" stroke="black" points="32,-110.5 32,-146.5"/>
<text text-anchor="middle" x="72" y="-124.8" font-family="Times,serif" font-size="14.00">data 2.0000</text>
<polyline fill="none" stroke="black" points="112,-110.5 112,-146.5"/>
<text text-anchor="middle" x="155" y="-124.8" font-family="Times,serif" font-size="14.00">grad &#45;1.5000</text>
</g>
<!-- 139724331332304&#45;&gt;139724329193616* -->
<g id="edge10" class="edge">
<title>139724331332304&#45;&gt;139724329193616*</title>
<path fill="none" stroke="black" d="M197.91,-128.5C207.43,-128.5 216.63,-128.5 224.95,-128.5"/>
<polygon fill="black" stroke="black" points="224.7,-132 234.7,-128.5 224.7,-125 224.7,-132"/>
</g>
<!-- 139724327784720 -->
<g id="node10" class="node">
<title>139724327784720</title>
<polygon fill="none" stroke="black" points="672,-82.5 672,-118.5 945,-118.5 945,-82.5 672,-82.5"/>
<text text-anchor="middle" x="725" y="-96.8" font-family="Times,serif" font-size="14.00">x1*w1 + x2*w2</text>
<polyline fill="none" stroke="black" points="778,-82.5 778,-118.5"/>
<text text-anchor="middle" x="820.5" y="-96.8" font-family="Times,serif" font-size="14.00">data &#45;6.0000</text>
<polyline fill="none" stroke="black" points="863,-82.5 863,-118.5"/>
<text text-anchor="middle" x="904" y="-96.8" font-family="Times,serif" font-size="14.00">grad 0.5000</text>
</g>
<!-- 139724327784720&#45;&gt;139724327785488+ -->
<g id="edge9" class="edge">
<title>139724327784720&#45;&gt;139724327785488+</title>
<path fill="none" stroke="black" d="M936.26,-82.53C948.59,-80.78 960.29,-79.12 970.49,-77.68"/>
<polygon fill="black" stroke="black" points="970.92,-81.01 980.33,-76.14 969.94,-74.08 970.92,-81.01"/>
</g>
<!-- 139724327784720+&#45;&gt;139724327784720 -->
<g id="edge4" class="edge">
<title>139724327784720+&#45;&gt;139724327784720</title>
<path fill="none" stroke="black" d="M636.23,-100.5C643.62,-100.5 652.23,-100.5 661.57,-100.5"/>
<polygon fill="black" stroke="black" points="661.4,-104 671.4,-100.5 661.4,-97 661.4,-104"/>
</g>
<!-- 139724329190160 -->
<g id="node12" class="node">
<title>139724329190160</title>
<polygon fill="none" stroke="black" points="328.5,-55.5 328.5,-91.5 543.5,-91.5 543.5,-55.5 328.5,-55.5"/>
<text text-anchor="middle" x="355" y="-69.8" font-family="Times,serif" font-size="14.00">x2*w2</text>
<polyline fill="none" stroke="black" points="381.5,-55.5 381.5,-91.5"/>
<text text-anchor="middle" x="421.5" y="-69.8" font-family="Times,serif" font-size="14.00">data 0.0000</text>
<polyline fill="none" stroke="black" points="461.5,-55.5 461.5,-91.5"/>
<text text-anchor="middle" x="502.5" y="-69.8" font-family="Times,serif" font-size="14.00">grad 0.5000</text>
</g>
<!-- 139724329190160&#45;&gt;139724327784720+ -->
<g id="edge6" class="edge">
<title>139724329190160&#45;&gt;139724327784720+</title>
<path fill="none" stroke="black" d="M543.35,-90.29C553.36,-91.87 562.97,-93.39 571.57,-94.75"/>
<polygon fill="black" stroke="black" points="570.83,-98.33 581.25,-96.43 571.92,-91.42 570.83,-98.33"/>
</g>
<!-- 139724329190160*&#45;&gt;139724329190160 -->
<g id="edge5" class="edge">
<title>139724329190160*&#45;&gt;139724329190160</title>
<path fill="none" stroke="black" d="M290.34,-73.5C298.41,-73.5 307.85,-73.5 317.98,-73.5"/>
<polygon fill="black" stroke="black" points="317.76,-77 327.76,-73.5 317.76,-70 317.76,-77"/>
</g>
<!-- 139724330376080 -->
<g id="node14" class="node">
<title>139724330376080</title>
<polygon fill="none" stroke="black" points="716,-27.5 716,-63.5 901,-63.5 901,-27.5 716,-27.5"/>
<text text-anchor="middle" x="727.5" y="-41.8" font-family="Times,serif" font-size="14.00">b</text>
<polyline fill="none" stroke="black" points="739,-27.5 739,-63.5"/>
<text text-anchor="middle" x="779" y="-41.8" font-family="Times,serif" font-size="14.00">data 6.8814</text>
<polyline fill="none" stroke="black" points="819,-27.5 819,-63.5"/>
<text text-anchor="middle" x="860" y="-41.8" font-family="Times,serif" font-size="14.00">grad 0.5000</text>
</g>
<!-- 139724330376080&#45;&gt;139724327785488+ -->
<g id="edge8" class="edge">
<title>139724330376080&#45;&gt;139724327785488+</title>
<path fill="none" stroke="black" d="M900.73,-57.97C925.52,-61.36 950.94,-64.84 970.7,-67.54"/>
<polygon fill="black" stroke="black" points="969.97,-71.11 980.35,-68.99 970.91,-64.17 969.97,-71.11"/>
</g>
<!-- 139724329145296 -->
<g id="node15" class="node">
<title>139724329145296</title>
<polygon fill="none" stroke="black" points="4,-0.5 4,-36.5 196,-36.5 196,-0.5 4,-0.5"/>
<text text-anchor="middle" x="19" y="-14.8" font-family="Times,serif" font-size="14.00">x2</text>
<polyline fill="none" stroke="black" points="34,-0.5 34,-36.5"/>
<text text-anchor="middle" x="74" y="-14.8" font-family="Times,serif" font-size="14.00">data 0.0000</text>
<polyline fill="none" stroke="black" points="114,-0.5 114,-36.5"/>
<text text-anchor="middle" x="155" y="-14.8" font-family="Times,serif" font-size="14.00">grad 0.5000</text>
</g>
<!-- 139724329145296&#45;&gt;139724329190160* -->
<g id="edge12" class="edge">
<title>139724329145296&#45;&gt;139724329190160*</title>
<path fill="none" stroke="black" d="M172.27,-36.48C181.67,-39.28 191.12,-42.3 200,-45.5 210.31,-49.21 221.29,-53.91 231.1,-58.39"/>
<polygon fill="black" stroke="black" points="229.28,-61.87 239.82,-62.93 232.25,-55.53 229.28,-61.87"/>
</g>
</g>
</svg>
