<?xml version="1.0" encoding="UTF-8" standalone="no"?>
<!DOCTYPE svg PUBLIC "-//W3C//DTD SVG 1.1//EN"
 "http://www.w3.org/Graphics/SVG/1.1/DTD/svg11.dtd">
<!-- Generated by graphviz version 8.0.1 (0)
 -->
<!-- Pages: 1 -->
<svg width="1157pt" height="154pt"
 viewBox="0.00 0.00 1157.00 154.00" xmlns="http://www.w3.org/2000/svg" xmlns:xlink="http://www.w3.org/1999/xlink">
<g id="graph0" class="graph" transform="scale(1 1) rotate(0) translate(4 150)">
<polygon fill="white" stroke="none" points="-4,4 -4,-150 1153,-150 1153,4 -4,4"/>
<!-- 139661448004112 -->
<g id="node1" class="node">
<title>139661448004112</title>
<polygon fill="none" stroke="black" points="957,-81.5 957,-117.5 1149,-117.5 1149,-81.5 957,-81.5"/>
<text text-anchor="middle" x="969.5" y="-95.8" font-family="Times,serif" font-size="14.00">L</text>
<polyline fill="none" stroke="black" points="982,-81.5 982,-117.5"/>
<text text-anchor="middle" x="1024.5" y="-95.8" font-family="Times,serif" font-size="14.00">data &#45;8.0000</text>
<polyline fill="none" stroke="black" points="1067,-81.5 1067,-117.5"/>
<text text-anchor="middle" x="1108" y="-95.8" font-family="Times,serif" font-size="14.00">grad 1.0000</text>
</g>
<!-- 139661448004112* -->
<g id="node2" class="node">
<title>139661448004112*</title>
<ellipse fill="none" stroke="black" cx="894" cy="-99.5" rx="27" ry="18"/>
<text text-anchor="middle" x="894" y="-95.8" font-family="Times,serif" font-size="14.00">*</text>
</g>
<!-- 139661448004112*&#45;&gt;139661448004112 -->
<g id="edge1" class="edge">
<title>139661448004112*&#45;&gt;139661448004112</title>
<path fill="none" stroke="black" d="M921.28,-99.5C928.68,-99.5 937.22,-99.5 946.31,-99.5"/>
<polygon fill="black" stroke="black" points="946.21,-103 956.21,-99.5 946.21,-96 946.21,-103"/>
</g>
<!-- 139661448003792 -->
<g id="node3" class="node">
<title>139661448003792</title>
<polygon fill="none" stroke="black" points="0,-55.5 0,-91.5 194,-91.5 194,-55.5 0,-55.5"/>
<text text-anchor="middle" x="11.5" y="-69.8" font-family="Times,serif" font-size="14.00">b</text>
<polyline fill="none" stroke="black" points="23,-55.5 23,-91.5"/>
<text text-anchor="middle" x="65.5" y="-69.8" font-family="Times,serif" font-size="14.00">data &#45;3.0000</text>
<polyline fill="none" stroke="black" points="108,-55.5 108,-91.5"/>
<text text-anchor="middle" x="151" y="-69.8" font-family="Times,serif" font-size="14.00">grad &#45;4.0000</text>
</g>
<!-- 139661448003920* -->
<g id="node6" class="node">
<title>139661448003920*</title>
<ellipse fill="none" stroke="black" cx="257" cy="-45.5" rx="27" ry="18"/>
<text text-anchor="middle" x="257" y="-41.8" font-family="Times,serif" font-size="14.00">*</text>
</g>
<!-- 139661448003792&#45;&gt;139661448003920* -->
<g id="edge8" class="edge">
<title>139661448003792&#45;&gt;139661448003920*</title>
<path fill="none" stroke="black" d="M193.55,-56.57C202.74,-54.94 211.62,-53.37 219.65,-51.94"/>
<polygon fill="black" stroke="black" points="220.16,-55.23 229.39,-50.04 218.94,-48.34 220.16,-55.23"/>
</g>
<!-- 139661448003856 -->
<g id="node4" class="node">
<title>139661448003856</title>
<polygon fill="none" stroke="black" points="320,-82.5 320,-118.5 516,-118.5 516,-82.5 320,-82.5"/>
<text text-anchor="middle" x="331.5" y="-96.8" font-family="Times,serif" font-size="14.00">c</text>
<polyline fill="none" stroke="black" points="343,-82.5 343,-118.5"/>
<text text-anchor="middle" x="386.5" y="-96.8" font-family="Times,serif" font-size="14.00">data 10.0000</text>
<polyline fill="none" stroke="black" points="430,-82.5 430,-118.5"/>
<text text-anchor="middle" x="473" y="-96.8" font-family="Times,serif" font-size="14.00">grad &#45;2.0000</text>
</g>
<!-- 139661448003984+ -->
<g id="node10" class="node">
<title>139661448003984+</title>
<ellipse fill="none" stroke="black" cx="579" cy="-72.5" rx="27" ry="18"/>
<text text-anchor="middle" x="579" y="-68.8" font-family="Times,serif" font-size="14.00">+</text>
</g>
<!-- 139661448003856&#45;&gt;139661448003984+ -->
<g id="edge5" class="edge">
<title>139661448003856&#45;&gt;139661448003984+</title>
<path fill="none" stroke="black" d="M515.62,-83.49C524.81,-81.87 533.68,-80.3 541.71,-78.89"/>
<polygon fill="black" stroke="black" points="542.2,-82.18 551.44,-77 540.99,-75.29 542.2,-82.18"/>
</g>
<!-- 139661448003920 -->
<g id="node5" class="node">
<title>139661448003920</title>
<polygon fill="none" stroke="black" points="321,-27.5 321,-63.5 515,-63.5 515,-27.5 321,-27.5"/>
<text text-anchor="middle" x="332.5" y="-41.8" font-family="Times,serif" font-size="14.00">e</text>
<polyline fill="none" stroke="black" points="344,-27.5 344,-63.5"/>
<text text-anchor="middle" x="386.5" y="-41.8" font-family="Times,serif" font-size="14.00">data &#45;6.0000</text>
<polyline fill="none" stroke="black" points="429,-27.5 429,-63.5"/>
<text text-anchor="middle" x="472" y="-41.8" font-family="Times,serif" font-size="14.00">grad &#45;2.0000</text>
</g>
<!-- 139661448003920&#45;&gt;139661448003984+ -->
<g id="edge7" class="edge">
<title>139661448003920&#45;&gt;139661448003984+</title>
<path fill="none" stroke="black" d="M514.7,-61.75C524.2,-63.36 533.37,-64.92 541.65,-66.33"/>
<polygon fill="black" stroke="black" points="540.88,-69.92 551.33,-68.14 542.06,-63.02 540.88,-69.92"/>
</g>
<!-- 139661448003920*&#45;&gt;139661448003920 -->
<g id="edge2" class="edge">
<title>139661448003920*&#45;&gt;139661448003920</title>
<path fill="none" stroke="black" d="M284.26,-45.5C291.95,-45.5 300.87,-45.5 310.38,-45.5"/>
<polygon fill="black" stroke="black" points="310.33,-49 320.33,-45.5 310.33,-42 310.33,-49"/>
</g>
<!-- 139661447882128 -->
<g id="node7" class="node">
<title>139661447882128</title>
<polygon fill="none" stroke="black" points="4.5,-0.5 4.5,-36.5 189.5,-36.5 189.5,-0.5 4.5,-0.5"/>
<text text-anchor="middle" x="16" y="-14.8" font-family="Times,serif" font-size="14.00">a</text>
<polyline fill="none" stroke="black" points="27.5,-0.5 27.5,-36.5"/>
<text text-anchor="middle" x="67.5" y="-14.8" font-family="Times,serif" font-size="14.00">data 2.0000</text>
<polyline fill="none" stroke="black" points="107.5,-0.5 107.5,-36.5"/>
<text text-anchor="middle" x="148.5" y="-14.8" font-family="Times,serif" font-size="14.00">grad 6.0000</text>
</g>
<!-- 139661447882128&#45;&gt;139661448003920* -->
<g id="edge9" class="edge">
<title>139661447882128&#45;&gt;139661448003920*</title>
<path fill="none" stroke="black" d="M189.45,-34.13C200.13,-35.95 210.49,-37.72 219.73,-39.3"/>
<polygon fill="black" stroke="black" points="218.96,-42.89 229.4,-41.13 220.14,-35.99 218.96,-42.89"/>
</g>
<!-- 139661448004048 -->
<g id="node8" class="node">
<title>139661448004048</title>
<polygon fill="none" stroke="black" points="642.5,-109.5 642.5,-145.5 830.5,-145.5 830.5,-109.5 642.5,-109.5"/>
<text text-anchor="middle" x="653" y="-123.8" font-family="Times,serif" font-size="14.00">f</text>
<polyline fill="none" stroke="black" points="663.5,-109.5 663.5,-145.5"/>
<text text-anchor="middle" x="706" y="-123.8" font-family="Times,serif" font-size="14.00">data &#45;2.0000</text>
<polyline fill="none" stroke="black" points="748.5,-109.5 748.5,-145.5"/>
<text text-anchor="middle" x="789.5" y="-123.8" font-family="Times,serif" font-size="14.00">grad 4.0000</text>
</g>
<!-- 139661448004048&#45;&gt;139661448004112* -->
<g id="edge6" class="edge">
<title>139661448004048&#45;&gt;139661448004112*</title>
<path fill="none" stroke="black" d="M830.2,-110.81C839.59,-109.12 848.68,-107.48 856.89,-106"/>
<polygon fill="black" stroke="black" points="857.26,-109.31 866.48,-104.09 856.02,-102.42 857.26,-109.31"/>
</g>
<!-- 139661448003984 -->
<g id="node9" class="node">
<title>139661448003984</title>
<polygon fill="none" stroke="black" points="642,-54.5 642,-90.5 831,-90.5 831,-54.5 642,-54.5"/>
<text text-anchor="middle" x="653.5" y="-68.8" font-family="Times,serif" font-size="14.00">d</text>
<polyline fill="none" stroke="black" points="665,-54.5 665,-90.5"/>
<text text-anchor="middle" x="705" y="-68.8" font-family="Times,serif" font-size="14.00">data 4.0000</text>
<polyline fill="none" stroke="black" points="745,-54.5 745,-90.5"/>
<text text-anchor="middle" x="788" y="-68.8" font-family="Times,serif" font-size="14.00">grad &#45;2.0000</text>
</g>
<!-- 139661448003984&#45;&gt;139661448004112* -->
<g id="edge4" class="edge">
<title>139661448003984&#45;&gt;139661448004112*</title>
<path fill="none" stroke="black" d="M830.65,-88.67C839.79,-90.26 848.64,-91.8 856.66,-93.19"/>
<polygon fill="black" stroke="black" points="855.94,-96.79 866.39,-95.05 857.13,-89.89 855.94,-96.79"/>
</g>
<!-- 139661448003984+&#45;&gt;139661448003984 -->
<g id="edge3" class="edge">
<title>139661448003984+&#45;&gt;139661448003984</title>
<path fill="none" stroke="black" d="M606.38,-72.5C613.79,-72.5 622.33,-72.5 631.41,-72.5"/>
<polygon fill="black" stroke="black" points="631.29,-76 641.29,-72.5 631.29,-69 631.29,-76"/>
</g>
</g>
</svg>
