<?xml version="1.0" encoding="UTF-8" standalone="no"?>
<!DOCTYPE svg PUBLIC "-//W3C//DTD SVG 1.1//EN"
 "http://www.w3.org/Graphics/SVG/1.1/DTD/svg11.dtd">
<!-- Generated by graphviz version 8.0.5 (0)
 -->
<!-- Pages: 1 -->
<svg width="1567pt" height="210pt"
 viewBox="0.00 0.00 1566.50 210.00" xmlns="http://www.w3.org/2000/svg" xmlns:xlink="http://www.w3.org/1999/xlink">
<g id="graph0" class="graph" transform="scale(1 1) rotate(0) translate(4 206)">
<polygon fill="white" stroke="none" points="-4,4 -4,-206 1562.5,-206 1562.5,4 -4,4"/>
<!-- 140654945080912 -->
<g id="node1" class="node">
<title>140654945080912</title>
<polygon fill="none" stroke="black" points="1374.75,-54.5 1374.75,-90.5 1558.5,-90.5 1558.5,-54.5 1374.75,-54.5"/>
<text text-anchor="middle" x="1386.12" y="-67.7" font-family="Times,serif" font-size="14.00">o</text>
<polyline fill="none" stroke="black" points="1397.5,-55 1397.5,-90.5"/>
<text text-anchor="middle" x="1437.38" y="-67.7" font-family="Times,serif" font-size="14.00">data 0.7071</text>
<polyline fill="none" stroke="black" points="1477.25,-55 1477.25,-90.5"/>
<text text-anchor="middle" x="1517.88" y="-67.7" font-family="Times,serif" font-size="14.00">grad 1.0000</text>
</g>
<!-- 140654945080912tanh -->
<g id="node2" class="node">
<title>140654945080912tanh</title>
<ellipse fill="none" stroke="black" cx="1311.75" cy="-72.5" rx="27" ry="18"/>
<text text-anchor="middle" x="1311.75" y="-67.45" font-family="Times,serif" font-size="14.00">tanh</text>
</g>
<!-- 140654945080912tanh&#45;&gt;140654945080912 -->
<g id="edge1" class="edge">
<title>140654945080912tanh&#45;&gt;140654945080912</title>
<path fill="none" stroke="black" d="M1339.03,-72.5C1346.45,-72.5 1355.01,-72.5 1364.1,-72.5"/>
<polygon fill="black" stroke="black" points="1363.97,-76 1373.97,-72.5 1363.97,-69 1363.97,-76"/>
</g>
<!-- 140654945081488 -->
<g id="node3" class="node">
<title>140654945081488</title>
<polygon fill="none" stroke="black" points="668.25,-82.5 668.25,-118.5 939,-118.5 939,-82.5 668.25,-82.5"/>
<text text-anchor="middle" x="720.88" y="-95.7" font-family="Times,serif" font-size="14.00">x1*w1 + x2*w2</text>
<polyline fill="none" stroke="black" points="773.5,-83 773.5,-118.5"/>
<text text-anchor="middle" x="815.62" y="-95.7" font-family="Times,serif" font-size="14.00">data &#45;6.0000</text>
<polyline fill="none" stroke="black" points="857.75,-83 857.75,-118.5"/>
<text text-anchor="middle" x="898.38" y="-95.7" font-family="Times,serif" font-size="14.00">grad 0.5000</text>
</g>
<!-- 140654945081680+ -->
<g id="node13" class="node">
<title>140654945081680+</title>
<ellipse fill="none" stroke="black" cx="1002" cy="-72.5" rx="27" ry="18"/>
<text text-anchor="middle" x="1002" y="-67.45" font-family="Times,serif" font-size="14.00">+</text>
</g>
<!-- 140654945081488&#45;&gt;140654945081680+ -->
<g id="edge13" class="edge">
<title>140654945081488&#45;&gt;140654945081680+</title>
<path fill="none" stroke="black" d="M930.66,-82.53C942.81,-80.8 954.35,-79.15 964.43,-77.71"/>
<polygon fill="black" stroke="black" points="964.74,-81.06 974.15,-76.19 963.76,-74.13 964.74,-81.06"/>
</g>
<!-- 140654945081488+ -->
<g id="node4" class="node">
<title>140654945081488+</title>
<ellipse fill="none" stroke="black" cx="605.25" cy="-100.5" rx="27" ry="18"/>
<text text-anchor="middle" x="605.25" y="-95.45" font-family="Times,serif" font-size="14.00">+</text>
</g>
<!-- 140654945081488+&#45;&gt;140654945081488 -->
<g id="edge2" class="edge">
<title>140654945081488+&#45;&gt;140654945081488</title>
<path fill="none" stroke="black" d="M632.73,-100.5C639.96,-100.5 648.32,-100.5 657.38,-100.5"/>
<polygon fill="black" stroke="black" points="657.32,-104 667.32,-100.5 657.32,-97 657.32,-104"/>
</g>
<!-- 140654945082000 -->
<g id="node5" class="node">
<title>140654945082000</title>
<polygon fill="none" stroke="black" points="324,-110.5 324,-146.5 542.25,-146.5 542.25,-110.5 324,-110.5"/>
<text text-anchor="middle" x="350.38" y="-123.7" font-family="Times,serif" font-size="14.00">x1*w1</text>
<polyline fill="none" stroke="black" points="376.75,-111 376.75,-146.5"/>
<text text-anchor="middle" x="418.88" y="-123.7" font-family="Times,serif" font-size="14.00">data &#45;6.0000</text>
<polyline fill="none" stroke="black" points="461,-111 461,-146.5"/>
<text text-anchor="middle" x="501.62" y="-123.7" font-family="Times,serif" font-size="14.00">grad 0.5000</text>
</g>
<!-- 140654945082000&#45;&gt;140654945081488+ -->
<g id="edge6" class="edge">
<title>140654945082000&#45;&gt;140654945081488+</title>
<path fill="none" stroke="black" d="M541.87,-110.77C551.1,-109.25 559.95,-107.79 567.93,-106.48"/>
<polygon fill="black" stroke="black" points="568.29,-109.8 577.59,-104.72 567.16,-102.89 568.29,-109.8"/>
</g>
<!-- 140654945082000* -->
<g id="node6" class="node">
<title>140654945082000*</title>
<ellipse fill="none" stroke="black" cx="261" cy="-128.5" rx="27" ry="18"/>
<text text-anchor="middle" x="261" y="-123.45" font-family="Times,serif" font-size="14.00">*</text>
</g>
<!-- 140654945082000*&#45;&gt;140654945082000 -->
<g id="edge3" class="edge">
<title>140654945082000*&#45;&gt;140654945082000</title>
<path fill="none" stroke="black" d="M288.21,-128.5C295.58,-128.5 304.1,-128.5 313.25,-128.5"/>
<polygon fill="black" stroke="black" points="313.24,-132 323.24,-128.5 313.24,-125 313.24,-132"/>
</g>
<!-- 140654945089680 -->
<g id="node7" class="node">
<title>140654945089680</title>
<polygon fill="none" stroke="black" points="326.25,-55.5 326.25,-91.5 540,-91.5 540,-55.5 326.25,-55.5"/>
<text text-anchor="middle" x="352.62" y="-68.7" font-family="Times,serif" font-size="14.00">x2*w2</text>
<polyline fill="none" stroke="black" points="379,-56 379,-91.5"/>
<text text-anchor="middle" x="418.88" y="-68.7" font-family="Times,serif" font-size="14.00">data 0.0000</text>
<polyline fill="none" stroke="black" points="458.75,-56 458.75,-91.5"/>
<text text-anchor="middle" x="499.38" y="-68.7" font-family="Times,serif" font-size="14.00">grad 0.5000</text>
</g>
<!-- 140654945089680&#45;&gt;140654945081488+ -->
<g id="edge14" class="edge">
<title>140654945089680&#45;&gt;140654945081488+</title>
<path fill="none" stroke="black" d="M539.93,-90.29C549.89,-91.87 559.45,-93.39 568.01,-94.75"/>
<polygon fill="black" stroke="black" points="567.21,-98.32 577.64,-96.43 568.31,-91.41 567.21,-98.32"/>
</g>
<!-- 140654945089680* -->
<g id="node8" class="node">
<title>140654945089680*</title>
<ellipse fill="none" stroke="black" cx="261" cy="-73.5" rx="27" ry="18"/>
<text text-anchor="middle" x="261" y="-68.45" font-family="Times,serif" font-size="14.00">*</text>
</g>
<!-- 140654945089680*&#45;&gt;140654945089680 -->
<g id="edge4" class="edge">
<title>140654945089680*&#45;&gt;140654945089680</title>
<path fill="none" stroke="black" d="M288.21,-73.5C296.23,-73.5 305.63,-73.5 315.71,-73.5"/>
<polygon fill="black" stroke="black" points="315.43,-77 325.43,-73.5 315.43,-70 315.43,-77"/>
</g>
<!-- 140654945072784 -->
<g id="node9" class="node">
<title>140654945072784</title>
<polygon fill="none" stroke="black" points="3.75,-55.5 3.75,-91.5 194.25,-91.5 194.25,-55.5 3.75,-55.5"/>
<text text-anchor="middle" x="18.5" y="-68.7" font-family="Times,serif" font-size="14.00">x2</text>
<polyline fill="none" stroke="black" points="33.25,-56 33.25,-91.5"/>
<text text-anchor="middle" x="73.12" y="-68.7" font-family="Times,serif" font-size="14.00">data 0.0000</text>
<polyline fill="none" stroke="black" points="113,-56 113,-91.5"/>
<text text-anchor="middle" x="153.62" y="-68.7" font-family="Times,serif" font-size="14.00">grad 0.5000</text>
</g>
<!-- 140654945072784&#45;&gt;140654945089680* -->
<g id="edge11" class="edge">
<title>140654945072784&#45;&gt;140654945089680*</title>
<path fill="none" stroke="black" d="M194,-73.5C204.12,-73.5 213.93,-73.5 222.76,-73.5"/>
<polygon fill="black" stroke="black" points="222.74,-77 232.74,-73.5 222.74,-70 222.74,-77"/>
</g>
<!-- 140654945073296 -->
<g id="node10" class="node">
<title>140654945073296</title>
<polygon fill="none" stroke="black" points="2.25,-0.5 2.25,-36.5 195.75,-36.5 195.75,-0.5 2.25,-0.5"/>
<text text-anchor="middle" x="18.5" y="-13.7" font-family="Times,serif" font-size="14.00">w2</text>
<polyline fill="none" stroke="black" points="34.75,-1 34.75,-36.5"/>
<text text-anchor="middle" x="74.62" y="-13.7" font-family="Times,serif" font-size="14.00">data 1.0000</text>
<polyline fill="none" stroke="black" points="114.5,-1 114.5,-36.5"/>
<text text-anchor="middle" x="155.12" y="-13.7" font-family="Times,serif" font-size="14.00">grad 0.0000</text>
</g>
<!-- 140654945073296&#45;&gt;140654945089680* -->
<g id="edge8" class="edge">
<title>140654945073296&#45;&gt;140654945089680*</title>
<path fill="none" stroke="black" d="M170.28,-36.44C179.67,-39.25 189.12,-42.29 198,-45.5 208.31,-49.22 219.28,-53.92 229.1,-58.41"/>
<polygon fill="black" stroke="black" points="227.28,-61.89 237.82,-62.95 230.24,-55.54 227.28,-61.89"/>
</g>
<!-- 140654945071376 -->
<g id="node11" class="node">
<title>140654945071376</title>
<polygon fill="none" stroke="black" points="1.5,-165.5 1.5,-201.5 196.5,-201.5 196.5,-165.5 1.5,-165.5"/>
<text text-anchor="middle" x="16.25" y="-178.7" font-family="Times,serif" font-size="14.00">x1</text>
<polyline fill="none" stroke="black" points="31,-166 31,-201.5"/>
<text text-anchor="middle" x="70.88" y="-178.7" font-family="Times,serif" font-size="14.00">data 2.0000</text>
<polyline fill="none" stroke="black" points="110.75,-166 110.75,-201.5"/>
<text text-anchor="middle" x="153.62" y="-178.7" font-family="Times,serif" font-size="14.00">grad &#45;1.5000</text>
</g>
<!-- 140654945071376&#45;&gt;140654945082000* -->
<g id="edge7" class="edge">
<title>140654945071376&#45;&gt;140654945082000*</title>
<path fill="none" stroke="black" d="M170.28,-165.56C179.67,-162.75 189.12,-159.71 198,-156.5 208.31,-152.78 219.28,-148.08 229.1,-143.59"/>
<polygon fill="black" stroke="black" points="230.24,-146.46 237.82,-139.05 227.28,-140.11 230.24,-146.46"/>
</g>
<!-- 140654945081680 -->
<g id="node12" class="node">
<title>140654945081680</title>
<polygon fill="none" stroke="black" points="1065,-54.5 1065,-90.5 1248.75,-90.5 1248.75,-54.5 1065,-54.5"/>
<text text-anchor="middle" x="1076.38" y="-67.7" font-family="Times,serif" font-size="14.00">n</text>
<polyline fill="none" stroke="black" points="1087.75,-55 1087.75,-90.5"/>
<text text-anchor="middle" x="1127.62" y="-67.7" font-family="Times,serif" font-size="14.00">data 0.8814</text>
<polyline fill="none" stroke="black" points="1167.5,-55 1167.5,-90.5"/>
<text text-anchor="middle" x="1208.12" y="-67.7" font-family="Times,serif" font-size="14.00">grad 0.5000</text>
</g>
<!-- 140654945081680&#45;&gt;140654945080912tanh -->
<g id="edge12" class="edge">
<title>140654945081680&#45;&gt;140654945080912tanh</title>
<path fill="none" stroke="black" d="M1248.57,-72.5C1257.3,-72.5 1265.76,-72.5 1273.5,-72.5"/>
<polygon fill="black" stroke="black" points="1273.25,-76 1283.25,-72.5 1273.25,-69 1273.25,-76"/>
</g>
<!-- 140654945081680+&#45;&gt;140654945081680 -->
<g id="edge5" class="edge">
<title>140654945081680+&#45;&gt;140654945081680</title>
<path fill="none" stroke="black" d="M1029.28,-72.5C1036.7,-72.5 1045.26,-72.5 1054.35,-72.5"/>
<polygon fill="black" stroke="black" points="1054.22,-76 1064.22,-72.5 1054.22,-69 1054.22,-76"/>
</g>
<!-- 140654945079632 -->
<g id="node14" class="node">
<title>140654945079632</title>
<polygon fill="none" stroke="black" points="711.75,-27.5 711.75,-63.5 895.5,-63.5 895.5,-27.5 711.75,-27.5"/>
<text text-anchor="middle" x="723.12" y="-40.7" font-family="Times,serif" font-size="14.00">b</text>
<polyline fill="none" stroke="black" points="734.5,-28 734.5,-63.5"/>
<text text-anchor="middle" x="774.38" y="-40.7" font-family="Times,serif" font-size="14.00">data 6.8814</text>
<polyline fill="none" stroke="black" points="814.25,-28 814.25,-63.5"/>
<text text-anchor="middle" x="854.88" y="-40.7" font-family="Times,serif" font-size="14.00">grad 0.5000</text>
</g>
<!-- 140654945079632&#45;&gt;140654945081680+ -->
<g id="edge9" class="edge">
<title>140654945079632&#45;&gt;140654945081680+</title>
<path fill="none" stroke="black" d="M895.34,-57.97C919.7,-61.32 944.68,-64.76 964.23,-67.44"/>
<polygon fill="black" stroke="black" points="963.69,-71.04 974.07,-68.93 964.64,-64.11 963.69,-71.04"/>
</g>
<!-- 140654945072016 -->
<g id="node15" class="node">
<title>140654945072016</title>
<polygon fill="none" stroke="black" points="0,-110.5 0,-146.5 198,-146.5 198,-110.5 0,-110.5"/>
<text text-anchor="middle" x="16.25" y="-123.7" font-family="Times,serif" font-size="14.00">w1</text>
<polyline fill="none" stroke="black" points="32.5,-111 32.5,-146.5"/>
<text text-anchor="middle" x="74.62" y="-123.7" font-family="Times,serif" font-size="14.00">data &#45;3.0000</text>
<polyline fill="none" stroke="black" points="116.75,-111 116.75,-146.5"/>
<text text-anchor="middle" x="157.38" y="-123.7" font-family="Times,serif" font-size="14.00">grad 1.0000</text>
</g>
<!-- 140654945072016&#45;&gt;140654945082000* -->
<g id="edge10" class="edge">
<title>140654945072016&#45;&gt;140654945082000*</title>
<path fill="none" stroke="black" d="M197.68,-128.5C206.51,-128.5 215.04,-128.5 222.8,-128.5"/>
<polygon fill="black" stroke="black" points="222.58,-132 232.58,-128.5 222.58,-125 222.58,-132"/>
</g>
</g>
</svg>
