<?xml version="1.0" encoding="UTF-8" standalone="no"?>
<!DOCTYPE svg PUBLIC "-//W3C//DTD SVG 1.1//EN"
 "http://www.w3.org/Graphics/SVG/1.1/DTD/svg11.dtd">
<!-- Generated by graphviz version 8.0.5 (0)
 -->
<!-- Pages: 1 -->
<svg width="1151pt" height="154pt"
 viewBox="0.00 0.00 1151.00 154.00" xmlns="http://www.w3.org/2000/svg" xmlns:xlink="http://www.w3.org/1999/xlink">
<g id="graph0" class="graph" transform="scale(1 1) rotate(0) translate(4 150)">
<polygon fill="white" stroke="none" points="-4,4 -4,-150 1147,-150 1147,4 -4,4"/>
<!-- 140571944455184 -->
<g id="node1" class="node">
<title>140571944455184</title>
<polygon fill="none" stroke="black" points="953.25,-81.5 953.25,-117.5 1143,-117.5 1143,-81.5 953.25,-81.5"/>
<text text-anchor="middle" x="965.38" y="-94.7" font-family="Times,serif" font-size="14.00">L</text>
<polyline fill="none" stroke="black" points="977.5,-82 977.5,-117.5"/>
<text text-anchor="middle" x="1019.62" y="-94.7" font-family="Times,serif" font-size="14.00">data &#45;8.0000</text>
<polyline fill="none" stroke="black" points="1061.75,-82 1061.75,-117.5"/>
<text text-anchor="middle" x="1102.38" y="-94.7" font-family="Times,serif" font-size="14.00">grad 1.0000</text>
</g>
<!-- 140571944455184* -->
<g id="node2" class="node">
<title>140571944455184*</title>
<ellipse fill="none" stroke="black" cx="890.25" cy="-99.5" rx="27" ry="18"/>
<text text-anchor="middle" x="890.25" y="-94.45" font-family="Times,serif" font-size="14.00">*</text>
</g>
<!-- 140571944455184*&#45;&gt;140571944455184 -->
<g id="edge1" class="edge">
<title>140571944455184*&#45;&gt;140571944455184</title>
<path fill="none" stroke="black" d="M917.69,-99.5C925.06,-99.5 933.54,-99.5 942.56,-99.5"/>
<polygon fill="black" stroke="black" points="942.36,-103 952.36,-99.5 942.36,-96 942.36,-103"/>
</g>
<!-- 140571944455824 -->
<g id="node3" class="node">
<title>140571944455824</title>
<polygon fill="none" stroke="black" points="318.75,-82.5 318.75,-118.5 513,-118.5 513,-82.5 318.75,-82.5"/>
<text text-anchor="middle" x="329.75" y="-95.7" font-family="Times,serif" font-size="14.00">c</text>
<polyline fill="none" stroke="black" points="340.75,-83 340.75,-118.5"/>
<text text-anchor="middle" x="384" y="-95.7" font-family="Times,serif" font-size="14.00">data 10.0000</text>
<polyline fill="none" stroke="black" points="427.25,-83 427.25,-118.5"/>
<text text-anchor="middle" x="470.12" y="-95.7" font-family="Times,serif" font-size="14.00">grad &#45;2.0000</text>
</g>
<!-- 140571944468368+ -->
<g id="node8" class="node">
<title>140571944468368+</title>
<ellipse fill="none" stroke="black" cx="576" cy="-72.5" rx="27" ry="18"/>
<text text-anchor="middle" x="576" y="-67.45" font-family="Times,serif" font-size="14.00">+</text>
</g>
<!-- 140571944455824&#45;&gt;140571944468368+ -->
<g id="edge6" class="edge">
<title>140571944455824&#45;&gt;140571944468368+</title>
<path fill="none" stroke="black" d="M512.96,-83.49C522.1,-81.87 530.93,-80.3 538.91,-78.89"/>
<polygon fill="black" stroke="black" points="539.35,-82.19 548.58,-77 538.13,-75.3 539.35,-82.19"/>
</g>
<!-- 140571944464592 -->
<g id="node4" class="node">
<title>140571944464592</title>
<polygon fill="none" stroke="black" points="640.12,-109.5 640.12,-145.5 826.12,-145.5 826.12,-109.5 640.12,-109.5"/>
<text text-anchor="middle" x="650.38" y="-122.7" font-family="Times,serif" font-size="14.00">f</text>
<polyline fill="none" stroke="black" points="660.62,-110 660.62,-145.5"/>
<text text-anchor="middle" x="702.75" y="-122.7" font-family="Times,serif" font-size="14.00">data &#45;2.0000</text>
<polyline fill="none" stroke="black" points="744.88,-110 744.88,-145.5"/>
<text text-anchor="middle" x="785.5" y="-122.7" font-family="Times,serif" font-size="14.00">grad 4.0000</text>
</g>
<!-- 140571944464592&#45;&gt;140571944455184* -->
<g id="edge5" class="edge">
<title>140571944464592&#45;&gt;140571944455184*</title>
<path fill="none" stroke="black" d="M825.71,-110.97C835.27,-109.24 844.53,-107.57 852.9,-106.06"/>
<polygon fill="black" stroke="black" points="853.47,-109.33 862.69,-104.11 852.23,-102.45 853.47,-109.33"/>
</g>
<!-- 140571944466192 -->
<g id="node5" class="node">
<title>140571944466192</title>
<polygon fill="none" stroke="black" points="319.88,-27.5 319.88,-63.5 511.88,-63.5 511.88,-27.5 319.88,-27.5"/>
<text text-anchor="middle" x="330.88" y="-40.7" font-family="Times,serif" font-size="14.00">e</text>
<polyline fill="none" stroke="black" points="341.88,-28 341.88,-63.5"/>
<text text-anchor="middle" x="384" y="-40.7" font-family="Times,serif" font-size="14.00">data &#45;6.0000</text>
<polyline fill="none" stroke="black" points="426.12,-28 426.12,-63.5"/>
<text text-anchor="middle" x="469" y="-40.7" font-family="Times,serif" font-size="14.00">grad &#45;2.0000</text>
</g>
<!-- 140571944466192&#45;&gt;140571944468368+ -->
<g id="edge9" class="edge">
<title>140571944466192&#45;&gt;140571944468368+</title>
<path fill="none" stroke="black" d="M511.6,-61.67C521.18,-63.31 530.45,-64.89 538.8,-66.32"/>
<polygon fill="black" stroke="black" points="538.12,-69.92 548.57,-68.16 539.3,-63.02 538.12,-69.92"/>
</g>
<!-- 140571944466192* -->
<g id="node6" class="node">
<title>140571944466192*</title>
<ellipse fill="none" stroke="black" cx="255.75" cy="-45.5" rx="27" ry="18"/>
<text text-anchor="middle" x="255.75" y="-40.45" font-family="Times,serif" font-size="14.00">*</text>
</g>
<!-- 140571944466192*&#45;&gt;140571944466192 -->
<g id="edge2" class="edge">
<title>140571944466192*&#45;&gt;140571944466192</title>
<path fill="none" stroke="black" d="M283.22,-45.5C290.88,-45.5 299.75,-45.5 309.2,-45.5"/>
<polygon fill="black" stroke="black" points="309.08,-49 319.08,-45.5 309.08,-42 309.08,-49"/>
</g>
<!-- 140571944468368 -->
<g id="node7" class="node">
<title>140571944468368</title>
<polygon fill="none" stroke="black" points="639,-54.5 639,-90.5 827.25,-90.5 827.25,-54.5 639,-54.5"/>
<text text-anchor="middle" x="650.38" y="-67.7" font-family="Times,serif" font-size="14.00">d</text>
<polyline fill="none" stroke="black" points="661.75,-55 661.75,-90.5"/>
<text text-anchor="middle" x="701.62" y="-67.7" font-family="Times,serif" font-size="14.00">data 4.0000</text>
<polyline fill="none" stroke="black" points="741.5,-55 741.5,-90.5"/>
<text text-anchor="middle" x="784.38" y="-67.7" font-family="Times,serif" font-size="14.00">grad &#45;2.0000</text>
</g>
<!-- 140571944468368&#45;&gt;140571944455184* -->
<g id="edge8" class="edge">
<title>140571944468368&#45;&gt;140571944455184*</title>
<path fill="none" stroke="black" d="M827.05,-88.67C836.17,-90.26 845,-91.8 853,-93.19"/>
<polygon fill="black" stroke="black" points="852.25,-96.79 862.7,-95.05 853.45,-89.89 852.25,-96.79"/>
</g>
<!-- 140571944468368+&#45;&gt;140571944468368 -->
<g id="edge3" class="edge">
<title>140571944468368+&#45;&gt;140571944468368</title>
<path fill="none" stroke="black" d="M603.31,-72.5C610.71,-72.5 619.23,-72.5 628.29,-72.5"/>
<polygon fill="black" stroke="black" points="628.14,-76 638.14,-72.5 628.14,-69 628.14,-76"/>
</g>
<!-- 140571944459664 -->
<g id="node9" class="node">
<title>140571944459664</title>
<polygon fill="none" stroke="black" points="4.88,-55.5 4.88,-91.5 187.88,-91.5 187.88,-55.5 4.88,-55.5"/>
<text text-anchor="middle" x="15.88" y="-68.7" font-family="Times,serif" font-size="14.00">a</text>
<polyline fill="none" stroke="black" points="26.88,-56 26.88,-91.5"/>
<text text-anchor="middle" x="66.75" y="-68.7" font-family="Times,serif" font-size="14.00">data 2.0000</text>
<polyline fill="none" stroke="black" points="106.62,-56 106.62,-91.5"/>
<text text-anchor="middle" x="147.25" y="-68.7" font-family="Times,serif" font-size="14.00">grad 6.0000</text>
</g>
<!-- 140571944459664&#45;&gt;140571944466192* -->
<g id="edge4" class="edge">
<title>140571944459664&#45;&gt;140571944466192*</title>
<path fill="none" stroke="black" d="M187.55,-57.46C198.51,-55.51 209.17,-53.61 218.64,-51.92"/>
<polygon fill="black" stroke="black" points="218.94,-55.25 228.17,-50.05 217.71,-48.36 218.94,-55.25"/>
</g>
<!-- 140571944455632 -->
<g id="node10" class="node">
<title>140571944455632</title>
<polygon fill="none" stroke="black" points="0,-0.5 0,-36.5 192.75,-36.5 192.75,-0.5 0,-0.5"/>
<text text-anchor="middle" x="11.38" y="-13.7" font-family="Times,serif" font-size="14.00">b</text>
<polyline fill="none" stroke="black" points="22.75,-1 22.75,-36.5"/>
<text text-anchor="middle" x="64.88" y="-13.7" font-family="Times,serif" font-size="14.00">data &#45;3.0000</text>
<polyline fill="none" stroke="black" points="107,-1 107,-36.5"/>
<text text-anchor="middle" x="149.88" y="-13.7" font-family="Times,serif" font-size="14.00">grad &#45;4.0000</text>
</g>
<!-- 140571944455632&#45;&gt;140571944466192* -->
<g id="edge7" class="edge">
<title>140571944455632&#45;&gt;140571944466192*</title>
<path fill="none" stroke="black" d="M192.55,-34.83C201.7,-36.4 210.54,-37.92 218.55,-39.29"/>
<polygon fill="black" stroke="black" points="217.8,-42.88 228.25,-41.12 218.98,-35.98 217.8,-42.88"/>
</g>
</g>
</svg>
