<?xml version="1.0" encoding="UTF-8" standalone="no"?>
<!DOCTYPE svg PUBLIC "-//W3C//DTD SVG 1.1//EN"
 "http://www.w3.org/Graphics/SVG/1.1/DTD/svg11.dtd">
<!-- Generated by graphviz version 8.0.5 (0)
 -->
<!-- Pages: 1 -->
<svg width="1140pt" height="156pt"
 viewBox="0.00 0.00 1139.75 156.00" xmlns="http://www.w3.org/2000/svg" xmlns:xlink="http://www.w3.org/1999/xlink">
<g id="graph0" class="graph" transform="scale(1 1) rotate(0) translate(4 152)">
<polygon fill="white" stroke="none" points="-4,4 -4,-152 1135.75,-152 1135.75,4 -4,4"/>
<!-- 139896005418000 -->
<g id="node1" class="node">
<title>139896005418000</title>
<polygon fill="none" stroke="black" points="0,-111.5 0,-147.5 188.25,-147.5 188.25,-111.5 0,-111.5"/>
<text text-anchor="middle" x="11.38" y="-124.7" font-family="Times,serif" font-size="14.00">b</text>
<polyline fill="none" stroke="black" points="22.75,-112 22.75,-147.5"/>
<text text-anchor="middle" x="64.88" y="-124.7" font-family="Times,serif" font-size="14.00">data &#45;3.0000</text>
<polyline fill="none" stroke="black" points="107,-112 107,-147.5"/>
<text text-anchor="middle" x="147.62" y="-124.7" font-family="Times,serif" font-size="14.00">grad 0.0000</text>
</g>
<!-- 139894543097296* -->
<g id="node10" class="node">
<title>139894543097296*</title>
<ellipse fill="none" stroke="black" cx="251.25" cy="-101.5" rx="27" ry="18"/>
<text text-anchor="middle" x="251.25" y="-96.45" font-family="Times,serif" font-size="14.00">*</text>
</g>
<!-- 139896005418000&#45;&gt;139894543097296* -->
<g id="edge6" class="edge">
<title>139896005418000&#45;&gt;139894543097296*</title>
<path fill="none" stroke="black" d="M188.05,-112.73C197.17,-111.08 206,-109.49 214,-108.04"/>
<polygon fill="black" stroke="black" points="214.48,-111.33 223.7,-106.11 213.24,-104.44 214.48,-111.33"/>
</g>
<!-- 139894539568272 -->
<g id="node2" class="node">
<title>139894539568272</title>
<polygon fill="none" stroke="black" points="630,-0.5 630,-36.5 816,-36.5 816,-0.5 630,-0.5"/>
<text text-anchor="middle" x="640.25" y="-13.7" font-family="Times,serif" font-size="14.00">f</text>
<polyline fill="none" stroke="black" points="650.5,-1 650.5,-36.5"/>
<text text-anchor="middle" x="692.62" y="-13.7" font-family="Times,serif" font-size="14.00">data &#45;2.0000</text>
<polyline fill="none" stroke="black" points="734.75,-1 734.75,-36.5"/>
<text text-anchor="middle" x="775.38" y="-13.7" font-family="Times,serif" font-size="14.00">grad 0.0000</text>
</g>
<!-- 139894539575056* -->
<g id="node6" class="node">
<title>139894539575056*</title>
<ellipse fill="none" stroke="black" cx="879" cy="-45.5" rx="27" ry="18"/>
<text text-anchor="middle" x="879" y="-40.45" font-family="Times,serif" font-size="14.00">*</text>
</g>
<!-- 139894539568272&#45;&gt;139894539575056* -->
<g id="edge7" class="edge">
<title>139894539568272&#45;&gt;139894539575056*</title>
<path fill="none" stroke="black" d="M815.81,-34.6C824.91,-36.19 833.73,-37.74 841.73,-39.14"/>
<polygon fill="black" stroke="black" points="840.98,-42.74 851.43,-41.02 842.18,-35.84 840.98,-42.74"/>
</g>
<!-- 139894540923024 -->
<g id="node3" class="node">
<title>139894540923024</title>
<polygon fill="none" stroke="black" points="314.25,-28.5 314.25,-64.5 504,-64.5 504,-28.5 314.25,-28.5"/>
<text text-anchor="middle" x="325.25" y="-41.7" font-family="Times,serif" font-size="14.00">c</text>
<polyline fill="none" stroke="black" points="336.25,-29 336.25,-64.5"/>
<text text-anchor="middle" x="379.5" y="-41.7" font-family="Times,serif" font-size="14.00">data 10.0000</text>
<polyline fill="none" stroke="black" points="422.75,-29 422.75,-64.5"/>
<text text-anchor="middle" x="463.38" y="-41.7" font-family="Times,serif" font-size="14.00">grad 0.0000</text>
</g>
<!-- 139894539577616+ -->
<g id="node8" class="node">
<title>139894539577616+</title>
<ellipse fill="none" stroke="black" cx="567" cy="-73.5" rx="27" ry="18"/>
<text text-anchor="middle" x="567" y="-68.45" font-family="Times,serif" font-size="14.00">+</text>
</g>
<!-- 139894540923024&#45;&gt;139894539577616+ -->
<g id="edge9" class="edge">
<title>139894540923024&#45;&gt;139894539577616+</title>
<path fill="none" stroke="black" d="M503.95,-62.75C513.06,-64.33 521.87,-65.86 529.86,-67.24"/>
<polygon fill="black" stroke="black" points="529.08,-70.83 539.53,-69.09 530.28,-63.93 529.08,-70.83"/>
</g>
<!-- 139894539575952 -->
<g id="node4" class="node">
<title>139894539575952</title>
<polygon fill="none" stroke="black" points="2.62,-56.5 2.62,-92.5 185.62,-92.5 185.62,-56.5 2.62,-56.5"/>
<text text-anchor="middle" x="13.62" y="-69.7" font-family="Times,serif" font-size="14.00">a</text>
<polyline fill="none" stroke="black" points="24.62,-57 24.62,-92.5"/>
<text text-anchor="middle" x="64.5" y="-69.7" font-family="Times,serif" font-size="14.00">data 2.0000</text>
<polyline fill="none" stroke="black" points="104.38,-57 104.38,-92.5"/>
<text text-anchor="middle" x="145" y="-69.7" font-family="Times,serif" font-size="14.00">grad 0.0000</text>
</g>
<!-- 139894539575952&#45;&gt;139894543097296* -->
<g id="edge8" class="edge">
<title>139894539575952&#45;&gt;139894543097296*</title>
<path fill="none" stroke="black" d="M185.36,-90.21C195.48,-91.97 205.31,-93.68 214.13,-95.21"/>
<polygon fill="black" stroke="black" points="213.25,-98.79 223.7,-97.05 214.45,-91.89 213.25,-98.79"/>
</g>
<!-- 139894539575056 -->
<g id="node5" class="node">
<title>139894539575056</title>
<polygon fill="none" stroke="black" points="942,-27.5 942,-63.5 1131.75,-63.5 1131.75,-27.5 942,-27.5"/>
<text text-anchor="middle" x="954.12" y="-40.7" font-family="Times,serif" font-size="14.00">L</text>
<polyline fill="none" stroke="black" points="966.25,-28 966.25,-63.5"/>
<text text-anchor="middle" x="1008.38" y="-40.7" font-family="Times,serif" font-size="14.00">data &#45;8.0000</text>
<polyline fill="none" stroke="black" points="1050.5,-28 1050.5,-63.5"/>
<text text-anchor="middle" x="1091.12" y="-40.7" font-family="Times,serif" font-size="14.00">grad 0.0000</text>
</g>
<!-- 139894539575056*&#45;&gt;139894539575056 -->
<g id="edge1" class="edge">
<title>139894539575056*&#45;&gt;139894539575056</title>
<path fill="none" stroke="black" d="M906.44,-45.5C913.81,-45.5 922.29,-45.5 931.31,-45.5"/>
<polygon fill="black" stroke="black" points="931.11,-49 941.11,-45.5 931.11,-42 931.11,-49"/>
</g>
<!-- 139894539577616 -->
<g id="node7" class="node">
<title>139894539577616</title>
<polygon fill="none" stroke="black" points="631.12,-55.5 631.12,-91.5 814.88,-91.5 814.88,-55.5 631.12,-55.5"/>
<text text-anchor="middle" x="642.5" y="-68.7" font-family="Times,serif" font-size="14.00">d</text>
<polyline fill="none" stroke="black" points="653.88,-56 653.88,-91.5"/>
<text text-anchor="middle" x="693.75" y="-68.7" font-family="Times,serif" font-size="14.00">data 4.0000</text>
<polyline fill="none" stroke="black" points="733.62,-56 733.62,-91.5"/>
<text text-anchor="middle" x="774.25" y="-68.7" font-family="Times,serif" font-size="14.00">grad 0.0000</text>
</g>
<!-- 139894539577616&#45;&gt;139894539575056* -->
<g id="edge5" class="edge">
<title>139894539577616&#45;&gt;139894539575056*</title>
<path fill="none" stroke="black" d="M814.47,-57.05C824.02,-55.32 833.27,-53.63 841.63,-52.11"/>
<polygon fill="black" stroke="black" points="842.21,-55.38 851.42,-50.15 840.96,-48.5 842.21,-55.38"/>
</g>
<!-- 139894539577616+&#45;&gt;139894539577616 -->
<g id="edge2" class="edge">
<title>139894539577616+&#45;&gt;139894539577616</title>
<path fill="none" stroke="black" d="M594.47,-73.5C602.16,-73.5 611.05,-73.5 620.48,-73.5"/>
<polygon fill="black" stroke="black" points="620.33,-77 630.33,-73.5 620.33,-70 620.33,-77"/>
</g>
<!-- 139894543097296 -->
<g id="node9" class="node">
<title>139894543097296</title>
<polygon fill="none" stroke="black" points="315.38,-83.5 315.38,-119.5 502.88,-119.5 502.88,-83.5 315.38,-83.5"/>
<text text-anchor="middle" x="326.38" y="-96.7" font-family="Times,serif" font-size="14.00">e</text>
<polyline fill="none" stroke="black" points="337.38,-84 337.38,-119.5"/>
<text text-anchor="middle" x="379.5" y="-96.7" font-family="Times,serif" font-size="14.00">data &#45;6.0000</text>
<polyline fill="none" stroke="black" points="421.62,-84 421.62,-119.5"/>
<text text-anchor="middle" x="462.25" y="-96.7" font-family="Times,serif" font-size="14.00">grad 0.0000</text>
</g>
<!-- 139894543097296&#45;&gt;139894539577616+ -->
<g id="edge4" class="edge">
<title>139894543097296&#45;&gt;139894539577616+</title>
<path fill="none" stroke="black" d="M502.6,-84.89C512.15,-83.17 521.41,-81.51 529.76,-80.01"/>
<polygon fill="black" stroke="black" points="530.3,-83.29 539.52,-78.08 529.06,-76.4 530.3,-83.29"/>
</g>
<!-- 139894543097296*&#45;&gt;139894543097296 -->
<g id="edge3" class="edge">
<title>139894543097296*&#45;&gt;139894543097296</title>
<path fill="none" stroke="black" d="M278.69,-101.5C286.39,-101.5 295.3,-101.5 304.78,-101.5"/>
<polygon fill="black" stroke="black" points="304.68,-105 314.68,-101.5 304.68,-98 304.68,-105"/>
</g>
</g>
</svg>
