<?xml version="1.0" encoding="UTF-8" standalone="no"?>
<!DOCTYPE svg PUBLIC "-//W3C//DTD SVG 1.1//EN"
 "http://www.w3.org/Graphics/SVG/1.1/DTD/svg11.dtd">
<!-- Generated by graphviz version 8.0.5 (0)
 -->
<!-- Pages: 1 -->
<svg width="1151pt" height="156pt"
 viewBox="0.00 0.00 1151.00 156.00" xmlns="http://www.w3.org/2000/svg" xmlns:xlink="http://www.w3.org/1999/xlink">
<g id="graph0" class="graph" transform="scale(1 1) rotate(0) translate(4 152)">
<polygon fill="white" stroke="none" points="-4,4 -4,-152 1147,-152 1147,4 -4,4"/>
<!-- 139896005418000 -->
<g id="node1" class="node">
<title>139896005418000</title>
<polygon fill="none" stroke="black" points="0,-111.5 0,-147.5 192.75,-147.5 192.75,-111.5 0,-111.5"/>
<text text-anchor="middle" x="11.38" y="-124.7" font-family="Times,serif" font-size="14.00">b</text>
<polyline fill="none" stroke="black" points="22.75,-112 22.75,-147.5"/>
<text text-anchor="middle" x="64.88" y="-124.7" font-family="Times,serif" font-size="14.00">data &#45;3.0000</text>
<polyline fill="none" stroke="black" points="107,-112 107,-147.5"/>
<text text-anchor="middle" x="149.88" y="-124.7" font-family="Times,serif" font-size="14.00">grad &#45;4.0000</text>
</g>
<!-- 139894543097296* -->
<g id="node10" class="node">
<title>139894543097296*</title>
<ellipse fill="none" stroke="black" cx="255.75" cy="-101.5" rx="27" ry="18"/>
<text text-anchor="middle" x="255.75" y="-96.45" font-family="Times,serif" font-size="14.00">*</text>
</g>
<!-- 139896005418000&#45;&gt;139894543097296* -->
<g id="edge6" class="edge">
<title>139896005418000&#45;&gt;139894543097296*</title>
<path fill="none" stroke="black" d="M192.55,-112.57C201.7,-110.94 210.54,-109.37 218.55,-107.94"/>
<polygon fill="black" stroke="black" points="219.01,-111.24 228.25,-106.04 217.79,-104.34 219.01,-111.24"/>
</g>
<!-- 139894539568272 -->
<g id="node2" class="node">
<title>139894539568272</title>
<polygon fill="none" stroke="black" points="640.12,-0.5 640.12,-36.5 826.12,-36.5 826.12,-0.5 640.12,-0.5"/>
<text text-anchor="middle" x="650.38" y="-13.7" font-family="Times,serif" font-size="14.00">f</text>
<polyline fill="none" stroke="black" points="660.62,-1 660.62,-36.5"/>
<text text-anchor="middle" x="702.75" y="-13.7" font-family="Times,serif" font-size="14.00">data &#45;2.0000</text>
<polyline fill="none" stroke="black" points="744.88,-1 744.88,-36.5"/>
<text text-anchor="middle" x="785.5" y="-13.7" font-family="Times,serif" font-size="14.00">grad 4.0000</text>
</g>
<!-- 139894539575056* -->
<g id="node6" class="node">
<title>139894539575056*</title>
<ellipse fill="none" stroke="black" cx="890.25" cy="-45.5" rx="27" ry="18"/>
<text text-anchor="middle" x="890.25" y="-40.45" font-family="Times,serif" font-size="14.00">*</text>
</g>
<!-- 139894539568272&#45;&gt;139894539575056* -->
<g id="edge7" class="edge">
<title>139894539568272&#45;&gt;139894539575056*</title>
<path fill="none" stroke="black" d="M825.71,-34.44C835.27,-36.1 844.53,-37.72 852.9,-39.17"/>
<polygon fill="black" stroke="black" points="852.24,-42.78 862.69,-41.05 853.44,-35.89 852.24,-42.78"/>
</g>
<!-- 139894540923024 -->
<g id="node3" class="node">
<title>139894540923024</title>
<polygon fill="none" stroke="black" points="318.75,-28.5 318.75,-64.5 513,-64.5 513,-28.5 318.75,-28.5"/>
<text text-anchor="middle" x="329.75" y="-41.7" font-family="Times,serif" font-size="14.00">c</text>
<polyline fill="none" stroke="black" points="340.75,-29 340.75,-64.5"/>
<text text-anchor="middle" x="384" y="-41.7" font-family="Times,serif" font-size="14.00">data 10.0000</text>
<polyline fill="none" stroke="black" points="427.25,-29 427.25,-64.5"/>
<text text-anchor="middle" x="470.12" y="-41.7" font-family="Times,serif" font-size="14.00">grad &#45;2.0000</text>
</g>
<!-- 139894539577616+ -->
<g id="node8" class="node">
<title>139894539577616+</title>
<ellipse fill="none" stroke="black" cx="576" cy="-73.5" rx="27" ry="18"/>
<text text-anchor="middle" x="576" y="-68.45" font-family="Times,serif" font-size="14.00">+</text>
</g>
<!-- 139894540923024&#45;&gt;139894539577616+ -->
<g id="edge9" class="edge">
<title>139894540923024&#45;&gt;139894539577616+</title>
<path fill="none" stroke="black" d="M512.96,-62.91C522.1,-64.47 530.93,-65.97 538.91,-67.34"/>
<polygon fill="black" stroke="black" points="538.14,-70.93 548.58,-69.16 539.32,-64.03 538.14,-70.93"/>
</g>
<!-- 139894539575952 -->
<g id="node4" class="node">
<title>139894539575952</title>
<polygon fill="none" stroke="black" points="4.88,-56.5 4.88,-92.5 187.88,-92.5 187.88,-56.5 4.88,-56.5"/>
<text text-anchor="middle" x="15.88" y="-69.7" font-family="Times,serif" font-size="14.00">a</text>
<polyline fill="none" stroke="black" points="26.88,-57 26.88,-92.5"/>
<text text-anchor="middle" x="66.75" y="-69.7" font-family="Times,serif" font-size="14.00">data 2.0000</text>
<polyline fill="none" stroke="black" points="106.62,-57 106.62,-92.5"/>
<text text-anchor="middle" x="147.25" y="-69.7" font-family="Times,serif" font-size="14.00">grad 6.0000</text>
</g>
<!-- 139894539575952&#45;&gt;139894543097296* -->
<g id="edge8" class="edge">
<title>139894539575952&#45;&gt;139894543097296*</title>
<path fill="none" stroke="black" d="M187.55,-89.97C198.39,-91.83 208.93,-93.64 218.33,-95.25"/>
<polygon fill="black" stroke="black" points="217.72,-98.87 228.17,-97.11 218.91,-91.97 217.72,-98.87"/>
</g>
<!-- 139894539575056 -->
<g id="node5" class="node">
<title>139894539575056</title>
<polygon fill="none" stroke="black" points="953.25,-27.5 953.25,-63.5 1143,-63.5 1143,-27.5 953.25,-27.5"/>
<text text-anchor="middle" x="965.38" y="-40.7" font-family="Times,serif" font-size="14.00">L</text>
<polyline fill="none" stroke="black" points="977.5,-28 977.5,-63.5"/>
<text text-anchor="middle" x="1019.62" y="-40.7" font-family="Times,serif" font-size="14.00">data &#45;8.0000</text>
<polyline fill="none" stroke="black" points="1061.75,-28 1061.75,-63.5"/>
<text text-anchor="middle" x="1102.38" y="-40.7" font-family="Times,serif" font-size="14.00">grad 1.0000</text>
</g>
<!-- 139894539575056*&#45;&gt;139894539575056 -->
<g id="edge1" class="edge">
<title>139894539575056*&#45;&gt;139894539575056</title>
<path fill="none" stroke="black" d="M917.69,-45.5C925.06,-45.5 933.54,-45.5 942.56,-45.5"/>
<polygon fill="black" stroke="black" points="942.36,-49 952.36,-45.5 942.36,-42 942.36,-49"/>
</g>
<!-- 139894539577616 -->
<g id="node7" class="node">
<title>139894539577616</title>
<polygon fill="none" stroke="black" points="639,-55.5 639,-91.5 827.25,-91.5 827.25,-55.5 639,-55.5"/>
<text text-anchor="middle" x="650.38" y="-68.7" font-family="Times,serif" font-size="14.00">d</text>
<polyline fill="none" stroke="black" points="661.75,-56 661.75,-91.5"/>
<text text-anchor="middle" x="701.62" y="-68.7" font-family="Times,serif" font-size="14.00">data 4.0000</text>
<polyline fill="none" stroke="black" points="741.5,-56 741.5,-91.5"/>
<text text-anchor="middle" x="784.38" y="-68.7" font-family="Times,serif" font-size="14.00">grad &#45;2.0000</text>
</g>
<!-- 139894539577616&#45;&gt;139894539575056* -->
<g id="edge5" class="edge">
<title>139894539577616&#45;&gt;139894539575056*</title>
<path fill="none" stroke="black" d="M827.05,-56.73C836.17,-55.08 845,-53.49 853,-52.04"/>
<polygon fill="black" stroke="black" points="853.48,-55.33 862.7,-50.11 852.24,-48.44 853.48,-55.33"/>
</g>
<!-- 139894539577616+&#45;&gt;139894539577616 -->
<g id="edge2" class="edge">
<title>139894539577616+&#45;&gt;139894539577616</title>
<path fill="none" stroke="black" d="M603.31,-73.5C610.71,-73.5 619.23,-73.5 628.29,-73.5"/>
<polygon fill="black" stroke="black" points="628.14,-77 638.14,-73.5 628.14,-70 628.14,-77"/>
</g>
<!-- 139894543097296 -->
<g id="node9" class="node">
<title>139894543097296</title>
<polygon fill="none" stroke="black" points="319.88,-83.5 319.88,-119.5 511.88,-119.5 511.88,-83.5 319.88,-83.5"/>
<text text-anchor="middle" x="330.88" y="-96.7" font-family="Times,serif" font-size="14.00">e</text>
<polyline fill="none" stroke="black" points="341.88,-84 341.88,-119.5"/>
<text text-anchor="middle" x="384" y="-96.7" font-family="Times,serif" font-size="14.00">data &#45;6.0000</text>
<polyline fill="none" stroke="black" points="426.12,-84 426.12,-119.5"/>
<text text-anchor="middle" x="469" y="-96.7" font-family="Times,serif" font-size="14.00">grad &#45;2.0000</text>
</g>
<!-- 139894543097296&#45;&gt;139894539577616+ -->
<g id="edge4" class="edge">
<title>139894543097296&#45;&gt;139894539577616+</title>
<path fill="none" stroke="black" d="M511.6,-84.73C521.18,-83.03 530.45,-81.39 538.8,-79.91"/>
<polygon fill="black" stroke="black" points="539.33,-83.19 548.57,-78 538.11,-76.3 539.33,-83.19"/>
</g>
<!-- 139894543097296*&#45;&gt;139894543097296 -->
<g id="edge3" class="edge">
<title>139894543097296*&#45;&gt;139894543097296</title>
<path fill="none" stroke="black" d="M283.22,-101.5C290.88,-101.5 299.75,-101.5 309.2,-101.5"/>
<polygon fill="black" stroke="black" points="309.08,-105 319.08,-101.5 309.08,-98 309.08,-105"/>
</g>
</g>
</svg>
